<?xml version="1.0" encoding="UTF-8"?>
<svg width="186px" height="128px" viewBox="0 0 186 128" version="1.1" xmlns="http://www.w3.org/2000/svg" xmlns:xlink="http://www.w3.org/1999/xlink">
    <title>excel-logo</title>
    <g id="Page-1" stroke="none" stroke-width="1" fill="none" fill-rule="evenodd">
        <g id="excel-logo" transform="translate(0.000005, -0.000003)" fill-rule="nonzero">
            <polygon id="Path" fill="#CBF5FF" points="185.999995 3.48013e-06 185.999995 100.015003 162.505995 128.000003 0 128.000003 1.070652e-05 0"></polygon>
            <path d="M55.2218954,67.2670035 C54.8027954,64.2293035 52.4633954,61.9865035 49.2855954,61.9865035 C46.1078954,61.9865035 44.0474954,64.0893035 43.4426954,67.2670035 L55.2218954,67.2670035 Z M55.1285954,73.8591035 L61.2505954,75.2132035 C59.9898954,79.3720035 55.0818954,82.4145035 49.4251954,82.4145035 C41.7123954,82.4140035 36.2418954,77.0363035 36.2418954,69.3230035 C36.2418954,61.6098035 41.7123954,56.6089035 49.4256954,56.6089035 C57.1389954,56.6089035 62.3260954,61.8470035 62.3260954,69.4159035 C62.3260954,70.0250035 62.3260954,71.0066035 62.2332954,71.5186035 L43.4855954,71.4720035 C44.0947954,74.8397035 46.4303954,77.0358035 49.6075954,77.0358035 C52.1332954,77.0358035 54.2826954,75.6817035 55.1247954,73.8586035" id="Shape" fill="#003040"></path>
            <path d="M55.2221954,67.2670035 C54.8029954,64.2293035 52.4635954,61.9865035 49.2858954,61.9865035 C46.1080954,61.9865035 44.0477954,64.0893035 43.4428954,67.2670035 L55.2221954,67.2670035 Z M55.1287954,73.8591035 L61.2507954,75.2132035 C59.9900954,79.3720035 55.0820954,82.4145035 49.4253954,82.4145035 C41.7126954,82.4140035 36.2421954,77.0363035 36.2421954,69.3230035 C36.2421954,61.6098035 41.7126954,56.6089035 49.4259954,56.6089035 C57.1391954,56.6089035 62.3262954,61.8470035 62.3262954,69.4159035 C62.3262954,70.0250035 62.3262954,71.0066035 62.2334954,71.5186035 L43.4858954,71.4720035 C44.0949954,74.8397035 46.4306954,77.0358035 49.6078954,77.0358035 C52.1334954,77.0358035 54.2829954,75.6817035 55.1250954,73.8586035" id="Shape" fill="#003040"></path>
            <path d="M128.772995,67.2665035 C128.353995,64.2288035 126.013995,61.9860035 122.836995,61.9860035 C119.658995,61.9860035 117.602995,64.0887035 116.993995,67.2665035 L128.772995,67.2665035 Z M128.679995,73.8586035 L134.801995,75.2127035 C133.540995,79.3715035 128.632995,82.4140035 122.976995,82.4140035 C115.262995,82.4140035 109.792995,77.0363035 109.792995,69.3230035 C109.792995,61.6098035 115.262995,56.6089035 122.976995,56.6089035 C130.689995,56.6089035 135.876995,61.8470035 135.876995,69.4159035 C135.876995,70.0250035 135.876995,71.0066035 135.783995,71.5186035 L117.035995,71.4720035 C117.644995,74.8397035 119.980995,77.0358035 123.158995,77.0358035 C125.683995,77.0358035 127.833995,75.6817035 128.675995,73.8586035" id="Shape" fill="#003040"></path>
            <polygon id="Path" fill="#FE487F" points="87.0523954 57.5645035 78.5860954 57.5645035 73.8052954 63.8985035 82.2758954 63.8985035"></polygon>
            <polygon id="Path" fill="#003040" points="78.0228954 69.4918035 76.4068954 67.3510035 73.8049954 63.8985035 69.0279954 57.5645035 60.5069954 57.5645035 69.5909954 69.4918035 60.5069954 81.5416035 68.8416954 81.5416035 73.8044954 75.0219035 78.7715954 81.5416035 87.1062954 81.5416035 78.0222954 69.4918035"></polygon>
            <path d="M137.737995,92.4511035 L137.737995,88.2402035 L137.745995,88.2402035 L141.189995,92.4511035 L144.033995,92.4511035 L144.033995,86.0486035 L141.798995,86.0486035 L141.798995,90.2060035 L141.791995,90.2060035 L138.346995,86.0486035 L135.503995,86.0486035 L135.503995,92.4511035 L137.737995,92.4511035 Z M130.082995,91.0193035 C128.673995,91.0193035 127.732995,90.3130035 127.732995,89.2480035 C127.732995,88.1831035 128.673995,87.4767035 130.082995,87.4767035 C131.491995,87.4767035 132.424995,88.1831035 132.424995,89.2480035 C132.424995,90.3130035 131.492995,91.0193035 130.082995,91.0193035 Z M130.082995,92.6723035 C132.918995,92.6723035 134.802995,91.3054035 134.802995,89.2475035 C134.802995,87.1897035 132.918995,85.8227035 130.082995,85.8227035 C127.246995,85.8227035 125.362995,87.1819035 125.362995,89.2475035 C125.362995,91.3131035 127.246995,92.6723035 130.082995,92.6723035 Z M118.652995,87.6290035 L120.587995,87.6290035 C121.827995,87.6290035 122.515995,88.2093035 122.515995,89.2480035 C122.515995,90.2867035 121.827995,90.8593035 120.587995,90.8593035 L118.652995,90.8593035 L118.652995,87.6295035 L118.652995,87.6290035 Z M120.930995,92.4470035 C123.431995,92.4470035 124.821995,91.3018035 124.821995,89.2475035 C124.821995,87.1933035 123.431995,86.0481035 120.930995,86.0481035 L116.354995,86.0481035 L116.354995,92.4506035 L120.930995,92.4506035 L120.930995,92.4470035 Z M109.197995,92.4470035 L109.197995,88.2361035 L109.205995,88.2361035 L112.650995,92.4470035 L115.493995,92.4470035 L115.493995,86.0445035 L113.258995,86.0445035 L113.258995,90.2018035 L113.251995,90.2018035 L109.806995,86.0445035 L106.963995,86.0445035 L106.963995,92.4470035 L109.197995,92.4470035 Z M101.542995,91.0152035 C100.133995,91.0152035 99.1932954,90.3089035 99.1932954,89.2439035 C99.1932954,88.1790035 100.133995,87.4726035 101.542995,87.4726035 C102.951995,87.4726035 103.884995,88.1790035 103.884995,89.2439035 C103.884995,90.3089035 102.952995,91.0152035 101.542995,91.0152035 Z M101.542995,92.6682035 C104.378995,92.6682035 106.258995,91.3013035 106.258995,89.2434035 C106.258995,87.1855035 104.374995,85.8186035 101.542995,85.8186035 C98.7108954,85.8186035 96.8232954,87.1778035 96.8232954,89.2434035 C96.8232954,91.3090035 98.7070954,92.6682035 101.542995,92.6682035 Z M96.6960954,92.4429035 L96.6960954,90.7173035 L92.7771954,90.7173035 L92.7771954,86.0403035 L90.4114954,86.0403035 L90.4114954,92.4429035 L96.7003954,92.4429035 L96.6960954,92.4429035 Z" id="Shape" fill="#FE487F"></path>
            <polygon id="Path" fill="#003040" points="144.034995 81.5413035 137.182995 81.5413035 137.182995 47.6510035 144.034995 47.6510035"></polygon>
            <path d="M103.838995,72.7803035 C102.815995,75.2034035 100.649995,76.5221035 98.0685954,76.5221035 C94.6112954,76.5221035 91.9948954,73.5789035 91.9948954,69.5140035 C91.9948954,65.4491035 94.6579954,62.5059035 98.0685954,62.5059035 C100.544995,62.5059035 102.697995,63.6233035 103.781995,66.1994035 L109.441995,63.2884035 C107.595995,59.2885035 103.154995,56.6195035 98.0218954,56.6195035 C90.4534954,56.6195035 84.9867954,62.0390035 84.9867954,69.5145035 C84.9867954,76.9901035 90.4996954,82.4096035 98.0218954,82.4096035 C103.081995,82.4096035 107.512995,79.7358035 109.430995,75.7299035 L103.838995,72.7808035 L103.838995,72.7803035 Z" id="Path" fill="#003040"></path>
        </g>
    </g>
</svg>