<?xml version="1.0" encoding="UTF-8"?>
<svg id="Layer_1" xmlns="http://www.w3.org/2000/svg" version="1.1" viewBox="0 0 186 128">
  <!-- Generator: Adobe Illustrator 30.0.0, SVG Export Plug-In . SVG Version: 2.1.1 Build 123)  -->
  <defs>
    <style>
      .st0 {
        fill: #fe487f;
      }

      .st1 {
        display: none;
        fill: #cbf5ff;
      }

      .st2 {
        fill: #003040;
      }
    </style>
  </defs>
  <g id="Page-1">
    <g id="excel-logo">
      <polygon id="Path" class="st1" points="186 0 186 100.01 162.51 128 0 128 0 0 186 0"/>
      <path id="Shape" class="st2" d="M55.22,67.27c-.42-3.04-2.76-5.28-5.94-5.28s-5.24,2.1-5.84,5.28h11.78ZM55.13,73.86l6.12,1.35c-1.26,4.16-6.17,7.2-11.83,7.2-7.71,0-13.18-5.38-13.18-13.09s5.47-12.71,13.18-12.71,12.9,5.24,12.9,12.81c0,.61,0,1.59-.09,2.1l-18.75-.05c.61,3.37,2.94,5.56,6.12,5.56,2.53,0,4.68-1.35,5.52-3.18"/>
      <path id="Shape1" data-name="Shape" class="st2" d="M55.22,67.27c-.42-3.04-2.76-5.28-5.94-5.28s-5.24,2.1-5.84,5.28h11.78ZM55.13,73.86l6.12,1.35c-1.26,4.16-6.17,7.2-11.83,7.2-7.71,0-13.18-5.38-13.18-13.09s5.47-12.71,13.18-12.71,12.9,5.24,12.9,12.81c0,.61,0,1.59-.09,2.1l-18.75-.05c.61,3.37,2.94,5.56,6.12,5.56,2.53,0,4.68-1.35,5.52-3.18"/>
      <path id="Shape2" data-name="Shape" class="st2" d="M128.77,67.27c-.42-3.04-2.76-5.28-5.94-5.28s-5.23,2.1-5.84,5.28h11.78ZM128.68,73.86l6.12,1.35c-1.26,4.16-6.17,7.2-11.83,7.2-7.71,0-13.18-5.38-13.18-13.09s5.47-12.71,13.18-12.71,12.9,5.24,12.9,12.81c0,.61,0,1.59-.09,2.1l-18.75-.05c.61,3.37,2.94,5.56,6.12,5.56,2.53,0,4.67-1.35,5.52-3.18"/>
      <polygon id="Path1" data-name="Path" class="st0" points="87.05 57.56 78.59 57.56 73.81 63.9 82.28 63.9 87.05 57.56"/>
      <polygon id="Path2" data-name="Path" class="st2" points="78.02 69.49 76.41 67.35 73.8 63.9 69.03 57.56 60.51 57.56 69.59 69.49 60.51 81.54 68.84 81.54 73.8 75.02 78.77 81.54 87.11 81.54 78.02 69.49 78.02 69.49"/>
      <path id="Shape3" data-name="Shape" class="st0" d="M137.74,92.45v-4.21h0l3.44,4.21h2.84v-6.4h-2.24v4.16h0l-3.44-4.16h-2.84v6.4h2.23ZM130.08,91.02c-1.41,0-2.35-.71-2.35-1.77s.94-1.77,2.35-1.77,2.34.71,2.34,1.77-.93,1.77-2.34,1.77ZM130.08,92.67c2.84,0,4.72-1.37,4.72-3.42s-1.88-3.42-4.72-3.42-4.72,1.36-4.72,3.42,1.88,3.42,4.72,3.42ZM118.65,87.63h1.94c1.24,0,1.93.58,1.93,1.62s-.69,1.61-1.93,1.61h-1.94v-3.23h0ZM120.93,92.45c2.5,0,3.89-1.15,3.89-3.2s-1.39-3.2-3.89-3.2h-4.58v6.4h4.58ZM109.2,92.45v-4.21h0l3.44,4.21h2.84v-6.4h-2.24v4.16h0l-3.44-4.16h-2.84v6.4h2.23ZM101.54,91.02c-1.41,0-2.35-.71-2.35-1.77s.94-1.77,2.35-1.77,2.34.71,2.34,1.77-.93,1.77-2.34,1.77ZM101.54,92.67c2.84,0,4.72-1.37,4.72-3.42s-1.88-3.42-4.72-3.42-4.72,1.36-4.72,3.42,1.88,3.42,4.72,3.42ZM96.7,92.44v-1.73h-3.92v-4.68h-2.37v6.4h6.29,0Z"/>
      <polygon id="Path3" data-name="Path" class="st2" points="144.03 81.54 137.18 81.54 137.18 47.65 144.03 47.65 144.03 81.54"/>
      <path id="Path4" data-name="Path" class="st2" d="M103.84,72.78c-1.02,2.42-3.19,3.74-5.77,3.74-3.46,0-6.07-2.94-6.07-7.01s2.66-7.01,6.07-7.01c2.48,0,4.63,1.12,5.71,3.69l5.66-2.91c-1.85-4-6.29-6.67-11.42-6.67-7.57,0-13.04,5.42-13.04,12.9s5.51,12.9,13.04,12.9c5.06,0,9.49-2.67,11.41-6.68l-5.59-2.95h0Z"/>
    </g>
  </g>
</svg>