<svg width="141" height="24" viewBox="0 0 141 24" fill="none" xmlns="http://www.w3.org/2000/svg">
<g id="Group 72">
<path id="Path 128" d="M137.463 13.5203C135.832 12.9129 135.103 12.4786 135.103 11.4779C135.103 10.6875 135.73 9.888 137.12 9.888C138.035 9.89755 138.931 10.1434 139.715 10.6002L139.86 10.6829L140.512 8.78933L140.422 8.73238C139.436 8.18003 138.312 7.90158 137.173 7.92756C134.491 7.92756 132.544 9.54101 132.544 11.7649C132.544 13.3859 133.741 14.6311 136.104 15.464C137.807 16.0821 138.411 16.6584 138.411 17.6606C138.411 18.7532 137.525 19.4069 136.043 19.4069C134.959 19.3672 133.902 19.0694 132.965 18.5398L132.818 18.454L132.167 20.4349L132.262 20.4881C133.403 21.096 134.688 21.4075 135.99 21.3924C139.015 21.3924 140.971 19.8465 140.971 17.4525C140.971 15.6113 139.888 14.3995 137.464 13.5211M126.788 21.1076H129.429V3.25732H126.788V21.1076ZM120.493 21.1076H123.13V3.25732H120.491L120.493 21.1076ZM116.969 17.9506C116.957 18.9556 117.019 19.9602 117.156 20.9566L117.179 21.1084H114.777C114.777 21.1084 114.62 19.9619 114.574 19.6301C114.096 20.1967 113.491 20.6502 112.805 20.956C112.119 21.2619 111.37 21.4122 110.615 21.3954C110.084 21.435 109.551 21.3668 109.049 21.1951C108.547 21.0235 108.088 20.7522 107.7 20.3986C107.313 20.045 107.005 19.6169 106.798 19.1416C106.591 18.6664 106.488 18.1545 106.497 17.6386C106.481 17.0937 106.58 16.5514 106.787 16.045C106.995 15.5385 107.308 15.0786 107.705 14.6934C108.981 13.4634 111.27 12.8142 114.329 12.8104V12.6813C114.358 12.2978 114.308 11.9124 114.181 11.548C114.054 11.1836 113.853 10.8476 113.59 10.5599C113.306 10.3182 112.975 10.1345 112.617 10.0196C112.258 9.90464 111.88 9.86091 111.503 9.89101C110.322 9.88103 109.163 10.1985 108.162 10.8059L108.015 10.9031L107.388 9.10367L107.479 9.04898C108.809 8.30307 110.321 7.91687 111.857 7.93062C116.083 7.93062 116.971 10.8158 116.971 13.2295L116.969 17.9506ZM111.21 19.4357C111.877 19.4575 112.534 19.2734 113.086 18.9101C113.638 18.5467 114.057 18.0228 114.282 17.4138C114.353 17.191 114.387 16.9589 114.383 16.7259V14.6638C112.144 14.6349 110.601 15.0062 109.795 15.7708C109.578 15.9804 109.407 16.2313 109.294 16.5077C109.181 16.7841 109.128 17.0802 109.139 17.3773C109.113 17.6496 109.148 17.9242 109.242 18.1821C109.336 18.4399 109.487 18.6748 109.683 18.8707C109.88 19.0665 110.119 19.2185 110.382 19.3162C110.646 19.4139 110.928 19.4549 111.21 19.4365M99.262 7.9321C98.382 7.92838 97.5182 8.16127 96.7665 8.60484C96.1443 8.92983 95.6149 9.39941 95.2259 9.97151V3.25959H92.5832V21.1076H95.2243V13.3631C95.2013 13.0084 95.2525 12.6527 95.3747 12.3176C95.5863 11.6883 95.993 11.1376 96.5392 10.7405C97.0854 10.3434 97.7446 10.1191 98.427 10.0983C100.805 10.0983 101.305 12.0724 101.305 13.7238V21.1076H103.945V13.4596C103.945 9.37624 101.422 7.92756 99.262 7.92756M86.3102 13.5195C84.6779 12.9121 83.9511 12.4778 83.9511 11.4771C83.9511 10.6867 84.573 9.88721 85.9671 9.88721C86.8821 9.89662 87.7778 10.1425 88.562 10.5994L88.7061 10.6822L89.3586 8.78859L89.2701 8.73163C88.284 8.17899 87.1599 7.90052 86.0212 7.92682C83.3386 7.92682 81.3914 9.54098 81.3914 11.7641C81.3914 13.3851 82.589 14.6296 84.9528 15.4632C86.654 16.0813 87.2587 16.6576 87.2587 17.6598C87.2587 18.7524 86.3729 19.4061 84.8902 19.4061C83.8063 19.3663 82.7491 19.0685 81.812 18.539L81.6648 18.4502L81.0162 20.4311L81.1087 20.4843C82.2506 21.0926 83.5355 21.4041 84.8385 21.3886C87.8634 21.3886 89.8176 19.8427 89.8176 17.4488C89.8176 15.6075 88.7359 14.3957 86.311 13.5173M79.7583 8.00727C79.5367 7.95097 79.3084 7.92319 79.0793 7.92455C78.2955 7.94733 77.5362 8.19383 76.8963 8.6332C76.2565 9.07258 75.7647 9.68525 75.4826 10.3944C75.4575 9.81359 75.3878 8.21307 75.3878 8.21307H73.0381L73.0475 8.35427C73.1258 9.43622 73.1548 10.648 73.1548 12.2835L73.1258 21.1016H75.7685V14.2393C75.7665 13.8798 75.7927 13.5207 75.8468 13.165C76.1718 11.4581 77.3663 10.3557 78.8874 10.3557L79.6377 10.4005L79.857 10.4218V8.03387L79.7583 8.00727ZM69.6098 17.9445C69.5977 18.9495 69.6595 19.954 69.7947 20.9505L69.8181 21.1023H67.4167C67.4167 21.1023 67.2601 19.9558 67.2139 19.624C66.7358 20.1905 66.1308 20.6439 65.4449 20.9498C64.759 21.2557 64.0101 21.406 63.2553 21.3893C62.7246 21.4289 62.1913 21.3607 61.6893 21.1891C61.1874 21.0174 60.7279 20.7461 60.3403 20.3925C59.9527 20.0389 59.6455 19.6108 59.4383 19.1356C59.2311 18.6603 59.1285 18.1483 59.137 17.6325C59.1208 17.0876 59.2197 16.5452 59.4277 16.0387C59.6356 15.5322 59.9483 15.0723 60.3463 14.6873C61.6207 13.4573 63.9093 12.8081 66.9687 12.8043V12.6752C66.9981 12.2917 66.9479 11.9064 66.8211 11.542C66.6942 11.1777 66.4933 10.8416 66.2301 10.5538C65.9464 10.3121 65.6153 10.1282 65.2567 10.0133C64.898 9.89838 64.5192 9.85473 64.1427 9.88494C62.9615 9.87515 61.802 10.1926 60.8006 10.7999L60.6542 10.897L60.0276 9.0976L60.12 9.04291C61.4489 8.29606 62.9607 7.90951 64.4968 7.92376C68.7263 7.92376 69.6129 10.809 69.6129 13.2235L69.6098 17.9445ZM63.8475 19.4296C64.5148 19.4514 65.172 19.2674 65.7246 18.9041C66.2772 18.5407 66.6966 18.0168 66.9225 17.4077C66.9942 17.1852 67.0283 16.9529 67.0235 16.7198V14.6577C64.7842 14.6288 63.2404 15.0001 62.436 15.7647C62.2183 15.9742 62.0476 16.225 61.9345 16.5015C61.8214 16.7779 61.7685 17.0741 61.7789 17.3713C61.7528 17.6434 61.7879 17.9179 61.8819 18.1756C61.9758 18.4333 62.1264 18.6682 62.3232 18.864C62.5199 19.0598 62.7582 19.2118 63.0215 19.3096C63.2848 19.4074 63.5669 19.4486 63.8482 19.4304M55.6124 3.25811L56.7591 21.1008H54.1744L53.7357 13.2553C53.6237 11.2053 53.4765 8.47194 53.4467 6.33841C52.8804 8.11129 52.2045 10.1545 51.3633 12.3806L48.1293 20.9975H46.1586L43.1603 12.537C42.3356 10.1393 41.7293 8.18115 41.2805 6.45078C41.2187 8.45828 41.1004 11.0064 40.9524 13.4429L40.4605 21.1038H37.9541L39.2386 3.26112H42.4499L45.5774 11.8545C46.2636 13.8286 46.8306 15.6508 47.3076 17.4153C47.7439 15.8664 48.3258 14.0935 49.1428 11.8522L52.405 3.26112H55.6163L55.6124 3.25811Z" fill="#A40E2D"/>
<path id="Path 129" d="M9.50595 10.5288C9.65659 10.6534 9.76567 10.8186 9.81942 11.0034C9.87316 11.1882 9.86913 11.3843 9.80785 11.5669C9.74657 11.7495 9.63079 11.9104 9.47517 12.0291C9.31954 12.1479 9.13106 12.2192 8.93359 12.2341C8.73612 12.249 8.53854 12.2068 8.36584 12.1127C8.19314 12.0187 8.05309 11.8772 7.96342 11.7059C7.87376 11.5347 7.8385 11.3416 7.86212 11.151C7.88574 10.9604 7.96717 10.7808 8.09611 10.635C8.26914 10.4407 8.51439 10.3204 8.77845 10.3005C9.04251 10.2806 9.304 10.3627 9.50595 10.5288Z" fill="#F6A400"/>
<path id="Path 130" d="M10.9154 12.5409C11.0731 12.6721 11.1872 12.8457 11.2431 13.0398C11.2991 13.2338 11.2944 13.4396 11.2297 13.6311C11.1651 13.8226 11.0433 13.9912 10.8797 14.1156C10.7162 14.24 10.5183 14.3146 10.3111 14.33C10.1038 14.3454 9.89652 14.3009 9.71537 14.2021C9.53422 14.1033 9.38735 13.9546 9.29334 13.7749C9.19933 13.5952 9.16239 13.3925 9.1872 13.1924C9.21201 12.9924 9.29745 12.8039 9.43272 12.651C9.61434 12.4459 9.87253 12.319 10.1506 12.2984C10.4286 12.2777 10.7037 12.365 10.9154 12.5409Z" fill="#F6A400"/>
<path id="Path 131" d="M13.2981 13.6212C13.4636 13.7592 13.5832 13.9416 13.6418 14.1454C13.7004 14.3492 13.6953 14.5653 13.6272 14.7663C13.5591 14.9673 13.431 15.1443 13.2591 15.2747C13.0873 15.4052 12.8794 15.4833 12.6618 15.4993C12.4441 15.5152 12.2265 15.4682 12.0364 15.3642C11.8463 15.2603 11.6923 15.104 11.5938 14.9151C11.4953 14.7263 11.4568 14.5134 11.4832 14.3034C11.5095 14.0933 11.5995 13.8956 11.7418 13.7351C11.8361 13.6284 11.9513 13.5408 12.0806 13.4773C12.21 13.4138 12.351 13.3757 12.4956 13.3651C12.6401 13.3545 12.7855 13.3717 12.9232 13.4157C13.0609 13.4596 13.1883 13.5295 13.2981 13.6212Z" fill="#F6A400"/>
<path id="Path 132" d="M16.0145 13.2637C16.1883 13.4087 16.3138 13.6004 16.3752 13.8146C16.4366 14.0287 16.4311 14.2557 16.3594 14.4668C16.2877 14.6779 16.153 14.8637 15.9724 15.0006C15.7918 15.1375 15.5734 15.2194 15.3447 15.236C15.1161 15.2525 14.8875 15.203 14.6879 15.0936C14.4883 14.9843 14.3267 14.82 14.2234 14.6216C14.1201 14.4231 14.0799 14.1995 14.1077 13.9789C14.1356 13.7582 14.2303 13.5506 14.3799 13.3822C14.5805 13.1563 14.8654 13.017 15.1719 12.9948C15.4785 12.9726 15.7816 13.0693 16.0145 13.2637Z" fill="#F6A400"/>
<path id="Path 133" d="M18.4481 11.5697C18.6311 11.7214 18.7636 11.9223 18.8288 12.1471C18.894 12.3718 18.889 12.6103 18.8143 12.8322C18.7397 13.0542 18.5988 13.2497 18.4095 13.394C18.2201 13.5383 17.9909 13.6249 17.7508 13.6429C17.5107 13.6609 17.2705 13.6094 17.0605 13.495C16.8506 13.3805 16.6804 13.2083 16.5715 13.0001C16.4626 12.7919 16.4199 12.557 16.4487 12.3252C16.4775 12.0934 16.5767 11.8752 16.7335 11.698C16.9435 11.4609 17.242 11.3142 17.5634 11.2901C17.8849 11.2661 18.203 11.3666 18.4481 11.5697Z" fill="#F6A400"/>
<path id="Path 134" d="M19.8462 8.86586C20.0382 9.02544 20.177 9.23663 20.2451 9.47271C20.3132 9.70878 20.3076 9.95915 20.2289 10.1921C20.1502 10.4251 20.002 10.6302 19.803 10.7814C19.604 10.9327 19.3632 11.0234 19.1111 11.042C18.8589 11.0606 18.6067 11.0063 18.3865 10.8859C18.1662 10.7656 17.9876 10.5846 17.8735 10.3659C17.7593 10.1471 17.7147 9.90045 17.7452 9.6571C17.7756 9.41375 17.8799 9.18462 18.0447 8.99872C18.1539 8.87516 18.2872 8.77371 18.4368 8.70014C18.5865 8.62657 18.7497 8.58231 18.917 8.56997C19.0844 8.55762 19.2526 8.57745 19.412 8.62822C19.5715 8.67899 19.719 8.75973 19.8462 8.86586Z" fill="#F6A400"/>
<path id="Path 135" d="M19.496 5.53131C19.6972 5.69896 19.8427 5.92073 19.9139 6.16851C19.9852 6.41628 19.979 6.67898 19.8963 6.92337C19.8135 7.16776 19.6579 7.38288 19.449 7.54152C19.2401 7.70016 18.9874 7.79518 18.7228 7.81461C18.4582 7.83404 18.1936 7.77699 17.9625 7.65066C17.7314 7.52432 17.5441 7.33436 17.4243 7.10484C17.3045 6.87532 17.2576 6.61655 17.2895 6.36119C17.3215 6.10584 17.4308 5.86541 17.6037 5.67028C17.8359 5.40909 18.1655 5.24779 18.5202 5.22174C18.8749 5.1957 19.2258 5.307 19.496 5.53131Z" fill="#F6A400"/>
<path id="Path 136" d="M17.546 2.73426C17.7575 2.91034 17.9105 3.14327 17.9855 3.40362C18.0605 3.66398 18.0542 3.94003 17.9673 4.1969C17.8805 4.45377 17.717 4.67991 17.4975 4.84671C17.2781 5.0135 17.0126 5.11348 16.7345 5.13398C16.4565 5.15448 16.1784 5.09458 15.9355 4.96187C15.6925 4.82916 15.4956 4.62957 15.3697 4.38839C15.2438 4.1472 15.1945 3.87523 15.228 3.60688C15.2615 3.33852 15.3764 3.08586 15.5581 2.88079C15.8017 2.60586 16.1479 2.43596 16.5207 2.40848C16.8935 2.381 17.2623 2.49819 17.546 2.73426Z" fill="#F6A400"/>
<path id="Path 137" d="M14.3778 1.03409C14.5998 1.21918 14.7602 1.46393 14.8386 1.73737C14.9171 2.01082 14.9102 2.30069 14.8187 2.57032C14.7272 2.83995 14.5553 3.07723 14.3248 3.25215C14.0942 3.42707 13.8152 3.53176 13.5233 3.553C13.2313 3.57424 12.9394 3.51107 12.6844 3.37148C12.4295 3.23188 12.223 3.02213 12.091 2.76876C11.959 2.51538 11.9076 2.22974 11.9431 1.948C11.9786 1.66626 12.0995 1.40104 12.2905 1.18591C12.4171 1.04284 12.5715 0.925425 12.7451 0.840337C12.9186 0.755249 13.1077 0.704157 13.3016 0.69005C13.4955 0.675944 13.6904 0.699096 13.8751 0.758126C14.0597 0.817157 14.2306 0.910944 14.3778 1.03409Z" fill="#F6A400"/>
<path id="Path 138" d="M10.7349 0.990006C10.9675 1.18426 11.1355 1.44096 11.2177 1.72772C11.2998 2.01448 11.2925 2.31841 11.1966 2.60113C11.1006 2.88384 10.9204 3.13265 10.6787 3.31613C10.437 3.49962 10.1446 3.60958 9.83841 3.63205C9.53227 3.65451 9.22612 3.58852 8.95865 3.44241C8.69117 3.29631 8.47437 3.07659 8.33562 2.8111C8.19687 2.54561 8.14241 2.24625 8.1791 1.95076C8.2158 1.65528 8.34201 1.37694 8.54179 1.15095C8.67468 1.00048 8.8369 0.876913 9.01916 0.787353C9.20141 0.697794 9.40012 0.644004 9.60387 0.62905C9.80762 0.614095 10.0124 0.638293 10.2065 0.700231C10.4006 0.762169 10.5801 0.860648 10.7349 0.990006Z" fill="#F6A400"/>
<path id="Path 139" d="M7.33218 2.65225C7.57656 2.85614 7.75311 3.12568 7.8395 3.42681C7.9259 3.72794 7.91827 4.04713 7.81757 4.34405C7.71688 4.64098 7.52764 4.90233 7.27377 5.09502C7.01991 5.28772 6.7128 5.40314 6.39128 5.42669C6.06976 5.45024 5.74827 5.38086 5.46741 5.22733C5.18656 5.0738 4.95895 4.84302 4.81337 4.56413C4.66779 4.28524 4.61077 3.97076 4.64951 3.66046C4.68824 3.35017 4.82101 3.05797 5.03101 2.8208C5.17055 2.66305 5.34081 2.53355 5.53206 2.43968C5.7233 2.34581 5.93177 2.28944 6.14552 2.27378C6.35928 2.25812 6.57412 2.28349 6.77774 2.34844C6.98137 2.41338 7.16977 2.51662 7.33218 2.65225Z" fill="#F6A400"/>
<path id="Path 140" d="M4.852 5.80164C5.10902 6.01541 5.29487 6.2983 5.38605 6.61447C5.47722 6.93064 5.46962 7.26589 5.36421 7.57787C5.2588 7.88986 5.06031 8.16454 4.79385 8.36717C4.5274 8.56979 4.20494 8.69125 3.86726 8.71621C3.52957 8.74117 3.19184 8.66852 2.89677 8.5074C2.6017 8.34628 2.36255 8.10395 2.20956 7.81106C2.05657 7.51818 1.99663 7.1879 2.03729 6.86198C2.07796 6.53607 2.21742 6.22913 2.43804 5.98005C2.7339 5.64633 3.15431 5.44012 3.60693 5.40667C4.05955 5.37321 4.50736 5.51525 4.852 5.80164Z" fill="#F6A400"/>
<path id="Path 141" d="M3.94398 9.71192C4.21479 9.93675 4.41069 10.2344 4.50687 10.5672C4.60304 10.9001 4.59517 11.2531 4.48425 11.5816C4.37333 11.9101 4.16434 12.1993 3.88376 12.4125C3.60318 12.6258 3.26363 12.7535 2.90809 12.7796C2.55255 12.8057 2.19703 12.7289 1.88654 12.559C1.57605 12.3891 1.32456 12.1337 1.16391 11.8251C1.00326 11.5165 0.940692 11.1687 0.984113 10.8257C1.02753 10.4826 1.17499 10.1597 1.40783 9.89793C1.71914 9.54793 2.16087 9.33184 2.63625 9.29697C3.11163 9.26211 3.58188 9.41131 3.94398 9.71192Z" fill="#F6A400"/>
<path id="Path 142" d="M5.18014 13.9484C5.46358 14.1842 5.66854 14.4961 5.7691 14.8448C5.86965 15.1935 5.8613 15.5632 5.74508 15.9073C5.62887 16.2514 5.41002 16.5543 5.1162 16.7778C4.82239 17.0013 4.4668 17.1353 4.09441 17.1629C3.72202 17.1905 3.34954 17.1105 3.02409 16.9329C2.69863 16.7553 2.4348 16.4881 2.26597 16.1652C2.09714 15.8423 2.03089 15.478 2.07559 15.1186C2.12029 14.7591 2.27393 14.4206 2.5171 14.1458C2.67857 13.9633 2.87555 13.8135 3.09677 13.7048C3.318 13.5961 3.55915 13.5307 3.80644 13.5124C4.05373 13.4941 4.30232 13.5231 4.53802 13.598C4.77372 13.6728 4.99192 13.7919 5.18014 13.9484Z" fill="#F6A400"/>
<path id="Path 143" d="M8.12926 17.3742C8.42656 17.6218 8.64146 17.9492 8.74678 18.3151C8.85211 18.6811 8.84312 19.0691 8.72098 19.4301C8.59884 19.7911 8.36902 20.1088 8.06058 20.3432C7.75214 20.5776 7.37893 20.7181 6.98814 20.7468C6.59736 20.7756 6.20654 20.6914 5.86512 20.5049C5.5237 20.3184 5.247 20.0378 5.07002 19.6989C4.89303 19.3599 4.82371 18.9777 4.87081 18.6005C4.91791 18.2234 5.07933 17.8682 5.33464 17.58C5.50413 17.3885 5.71089 17.2312 5.9431 17.1173C6.17531 17.0033 6.42842 16.9348 6.68796 16.9157C6.9475 16.8966 7.20839 16.9272 7.4557 17.0059C7.703 17.0846 7.93188 17.2097 8.12926 17.3742Z" fill="#F6A400"/>
<path id="Path 144" d="M12.4312 19.5593C12.7433 19.8195 12.9688 20.1635 13.0791 20.5479C13.1895 20.9323 13.1798 21.3397 13.0513 21.7188C12.9227 22.0978 12.6811 22.4314 12.357 22.6774C12.0329 22.9233 11.6409 23.0706 11.2304 23.1005C10.82 23.1305 10.4096 23.0417 10.0512 22.8456C9.69276 22.6494 9.40237 22.3547 9.21676 21.9986C9.03116 21.6424 8.95867 21.2409 9.00844 20.8449C9.05821 20.4488 9.22802 20.076 9.4964 19.7735C9.67442 19.5723 9.89161 19.4072 10.1356 19.2876C10.3795 19.1679 10.6454 19.0961 10.918 19.0762C11.1906 19.0564 11.4646 19.0888 11.7243 19.1717C11.9839 19.2546 12.2242 19.3863 12.4312 19.5593Z" fill="#F6A400"/>
<path id="Path 145" d="M17.7588 19.8108C18.0866 20.0837 18.3237 20.4447 18.4399 20.8482C18.5561 21.2517 18.5463 21.6796 18.4117 22.0777C18.2771 22.4758 18.0238 22.8263 17.6838 23.0848C17.3437 23.3433 16.9322 23.4983 16.5013 23.5302C16.0704 23.562 15.6394 23.4693 15.2628 23.2637C14.8863 23.0581 14.5811 22.7489 14.3858 22.3752C14.1905 22.0015 14.1139 21.58 14.1656 21.1641C14.2174 20.7482 14.3953 20.3565 14.6767 20.0386C14.8634 19.827 15.0913 19.6533 15.3473 19.5273C15.6034 19.4013 15.8826 19.3256 16.169 19.3045C16.4553 19.2833 16.7431 19.3172 17.0159 19.404C17.2887 19.4909 17.5412 19.6291 17.7588 19.8108Z" fill="#F6A400"/>
<path id="Path 146" d="M23.1076 17.7152C23.4519 18.0021 23.7007 18.3815 23.8226 18.8055C23.9444 19.2294 23.9339 19.6789 23.7923 20.097C23.6507 20.5152 23.3843 20.8832 23.0269 21.1547C22.6696 21.4261 22.2372 21.5887 21.7844 21.6219C21.3317 21.6551 20.879 21.5575 20.4836 21.3413C20.0881 21.1252 19.7676 20.8002 19.5627 20.4075C19.3577 20.0147 19.2775 19.572 19.3321 19.1351C19.3868 18.6981 19.5738 18.2867 19.8696 17.9529C20.0659 17.7309 20.3055 17.5486 20.5746 17.4165C20.8436 17.2843 21.137 17.2049 21.4377 17.1829C21.7385 17.1608 22.0408 17.1965 22.3274 17.2878C22.6139 17.3792 22.879 17.5244 23.1076 17.7152Z" fill="#F6A400"/>
<path id="Path 147" d="M27.4804 13.4118C27.8419 13.7127 28.1032 14.1108 28.2313 14.5557C28.3594 15.0006 28.3485 15.4723 28.2001 15.9112C28.0516 16.3501 27.7723 16.7365 27.3973 17.0215C27.0223 17.3065 26.5686 17.4773 26.0935 17.5124C25.6184 17.5474 25.1432 17.4451 24.7281 17.2183C24.3129 16.9916 23.9765 16.6506 23.7613 16.2385C23.546 15.8264 23.4617 15.3618 23.5189 14.9032C23.5761 14.4446 23.7723 14.0128 24.0827 13.6624C24.499 13.1925 25.0909 12.9021 25.728 12.8551C26.3652 12.8081 26.9955 13.0084 27.4804 13.4118Z" fill="#F6A400"/>
<path id="Path 148" d="M29.7307 7.74535C30.1099 8.06164 30.3839 8.47979 30.518 8.94699C30.6521 9.41419 30.6403 9.90945 30.484 10.3701C30.3278 10.8308 30.0342 11.2363 29.6403 11.5353C29.2464 11.8342 28.77 12.0133 28.2711 12.0498C27.7723 12.0863 27.2734 11.9786 26.8377 11.7404C26.402 11.5021 26.0489 11.144 25.8231 10.7112C25.5973 10.2785 25.509 9.79057 25.5692 9.30915C25.6294 8.82773 25.8355 8.37442 26.1614 8.00653C26.378 7.76198 26.6421 7.56122 26.9387 7.41572C27.2354 7.27022 27.5587 7.18283 27.8902 7.15857C28.2217 7.13431 28.5549 7.17365 28.8707 7.27433C29.1865 7.37501 29.4787 7.53508 29.7307 7.74535Z" fill="#F6A400"/>
<path id="Path 149" d="M29.2592 1.20579C29.6577 1.53778 29.9456 1.9768 30.0866 2.4674C30.2277 2.958 30.2155 3.47813 30.0517 3.96202C29.8878 4.44591 29.5796 4.87182 29.1661 5.18595C28.7526 5.50008 28.2522 5.68833 27.7284 5.72685C27.2045 5.76538 26.6806 5.65248 26.2229 5.40241C25.7652 5.15235 25.3943 4.77634 25.157 4.32195C24.9197 3.86756 24.8267 3.35519 24.8898 2.84958C24.9529 2.34397 25.1692 1.86784 25.5114 1.48139C25.7386 1.22446 26.0159 1.01348 26.3273 0.860544C26.6388 0.707611 26.9782 0.615739 27.3264 0.590139C27.6745 0.564539 28.0244 0.60573 28.356 0.71137C28.6877 0.817009 28.9946 0.985032 29.2592 1.20579Z" fill="#F6A400"/>
</g>
</svg>
