<?xml version="1.0" encoding="utf-8"?>
<!-- Generator: Adobe Illustrator 25.2.3, SVG Export Plug-In . SVG Version: 6.00 Build 0)  -->
<svg version="1.1" id="Layer_1" xmlns="http://www.w3.org/2000/svg" xmlns:xlink="http://www.w3.org/1999/xlink" x="0px" y="0px"
	 viewBox="0 0 363 166.5" style="enable-background:new 0 0 363 166.5;" xml:space="preserve">
<style type="text/css">
	.st0{fill:#6A91A9;}
	.st1{fill:#65717A;}
	.st2{fill:#FFFFFF;}
	.st3{fill:#079048;}
	.st4{font-family:'Arial-BoldItalicMT';}
	.st5{font-size:18px;}
</style>
<path class="st0" d="M43.1,71.2l0.2-0.1l-0.1,0.2L43,71.4L43.1,71.2z M43.3,71.2l0.2,0l-0.2,0.2l-0.2,0L43.3,71.2z"/>
<path class="st0" d="M43.4,71.5c0.1,0,0.2,0.1,0.1,0.1c0,0.1-0.1,0.1-0.2,0.1c-0.1,0-0.2,0-0.1-0.1C43.2,71.6,43.3,71.5,43.4,71.5z"
	/>
<path class="st0" d="M43.4,71.9l0.1,0.2l-0.3,0.1L43.2,72L43.4,71.9z"/>
<path class="st0" d="M43.3,72.5c0.1,0.1,0.1,0.3,0,0.4c-0.1,0.1-0.2,0-0.2-0.1c-0.1-0.1-0.1-0.3,0-0.4
	C43.1,72.3,43.3,72.4,43.3,72.5z M43,73.2c0,0.2,0,0.4-0.2,0.5c-0.1,0.1-0.2-0.1-0.2-0.3c0-0.2,0-0.4,0.2-0.5
	C42.9,72.9,43,73,43,73.2z M42.4,74c0,0.2-0.2,0.4-0.3,0.6c-0.1,0-0.1-0.2-0.1-0.5c0-0.2,0.2-0.4,0.3-0.6
	C42.5,73.5,42.5,73.7,42.4,74z M41.6,74.6c-0.1,0.3-0.3,0.5-0.5,0.6c-0.1-0.2,0-0.5,0.1-0.7c0.1-0.3,0.3-0.5,0.5-0.6
	C41.8,74.2,41.8,74.4,41.6,74.6z M40.7,75.1c-0.3,0.4-0.6,0.6-0.7,0.5c0-0.3,0.1-0.7,0.4-0.9c0.3-0.4,0.6-0.6,0.7-0.4
	C41.1,74.5,40.9,74.8,40.7,75.1z M39.7,75.1c-0.4,0.3-0.7,0.4-0.7,0.2c0.1-0.4,0.3-0.8,0.6-1c0.4-0.3,0.7-0.4,0.8-0.2
	C40.3,74.5,40.1,74.8,39.7,75.1z M38.9,74.4c-0.4,0.2-0.8,0.1-0.7-0.2c0.2-0.4,0.5-0.8,0.9-0.9c0.5-0.2,0.8-0.1,0.7,0.2
	C39.6,73.9,39.3,74.2,38.9,74.4z M38.3,72.8c-0.3,0-0.6-0.3-0.6-0.6c0-0.1,0-0.2,0-0.2c0.2-0.4,0.7-0.7,1.2-0.6
	c0.3,0,0.6,0.3,0.6,0.6c0,0.1,0,0.2,0,0.2C39.3,72.7,38.8,72.9,38.3,72.8z M38.4,70.4c-0.4-0.4-0.5-1-0.2-1.5
	c0.3-0.4,0.8-0.4,1.2-0.1c0.1,0,0.1,0.1,0.1,0.1c0.4,0.4,0.5,1,0.2,1.5c-0.3,0.4-0.8,0.4-1.1,0.2C38.5,70.6,38.4,70.5,38.4,70.4z
	 M39.3,67.3c-0.3-0.7-0.1-1.5,0.3-2.1c0.4-0.4,1,0,1.2,0.8c0.2,0.7,0.1,1.5-0.3,2.1C40,68.5,39.5,68.1,39.3,67.3z M41.3,63.8
	c0.1-1.2,0.6-2.3,1.2-2.5s0.9,0.6,0.8,1.8c0,1-0.4,1.9-1.2,2.5C41.6,65.7,41.2,65,41.3,63.8z M44.7,60.4c0.6-1.5,1.6-2.6,2.2-2.5
	s0.6,1.3-0.1,2.7s-1.6,2.6-2.1,2.6S44,61.9,44.7,60.4z M49.2,58.1c1.2-1.6,2.7-2.4,3.2-2S52.3,58,51,59.5s-2.6,2.5-3.1,2.1
	S48,59.6,49.2,58.1z M54.4,57.6c1.9-1.3,3.7-1.8,3.9-1s-1.1,2.4-2.9,3.7s-3.5,1.9-3.8,1.2S52.6,58.9,54.4,57.6z"/>
<path class="st0" d="M43.1,70.8l0.2-0.1L43.1,70.8L43,70.9L43.1,70.8z"/>
<path class="st0" d="M43.5,70.7c0.1-0.1,0.2-0.1,0.2,0c0,0.1-0.1,0.2-0.2,0.2c-0.1,0.1-0.2,0.1-0.2,0C43.3,70.8,43.4,70.7,43.5,70.7
	z M43.8,70.9c0.1,0,0.2,0,0.2,0.1c0,0.1-0.1,0.2-0.2,0.2c-0.1,0-0.2,0-0.2-0.1C43.6,71,43.7,70.9,43.8,70.9z"/>
<ellipse transform="matrix(0.3592 -0.9333 0.9333 0.3592 -38.5453 86.789)" class="st0" cx="43.9" cy="71.5" rx="0.2" ry="0.2"/>
<path class="st0" d="M44,72c0.1,0.1,0.1,0.3,0,0.4c0,0.1-0.1,0.1-0.2,0.1c0,0,0,0-0.1-0.1c-0.1-0.1-0.1-0.3,0-0.4
	C43.8,71.9,43.9,71.9,44,72C44,71.9,44,72,44,72z M43.8,73c0,0.2,0,0.4-0.2,0.6c-0.1,0.1-0.2,0-0.2-0.2c0-0.2,0-0.4,0.2-0.6
	C43.7,72.7,43.8,72.8,43.8,73z M43.2,74.2c0,0.3-0.2,0.5-0.4,0.8c-0.1,0.1-0.2-0.1-0.1-0.4c0-0.3,0.2-0.5,0.4-0.7
	C43.2,73.7,43.3,73.9,43.2,74.2z M42.3,75.4c-0.1,0.3-0.3,0.6-0.6,0.8c-0.2,0-0.1-0.3,0-0.7c0.1-0.3,0.3-0.6,0.6-0.8
	C42.5,74.8,42.5,75.1,42.3,75.4z M41,76.6c-0.1,0.3-0.4,0.6-0.8,0.7c-0.1-0.3,0-0.7,0.3-0.9c0.1-0.3,0.4-0.6,0.8-0.7
	C41.4,76,41.3,76.4,41,76.6z M39.5,77.4c-0.4,0.4-0.8,0.6-0.9,0.4c0-0.4,0.2-0.8,0.6-1.1c0.4-0.4,0.8-0.6,0.9-0.4
	C40,76.7,39.8,77.1,39.5,77.4z M37.9,77.3c-0.5,0.3-0.9,0.3-1-0.1c0.1-0.5,0.4-0.9,0.8-1.1c0.5-0.3,1-0.2,1,0.1
	C38.6,76.7,38.3,77.1,37.9,77.3z M36.4,76.2c-0.4,0.1-0.8-0.2-0.9-0.6c0-0.1,0-0.1,0-0.2c0.1-0.5,0.6-0.9,1.1-0.9
	c0.4-0.1,0.8,0.2,0.9,0.5c0,0.1,0,0.2,0,0.2C37.4,75.8,37,76.2,36.4,76.2z M35.5,73.6c-0.5-0.4-0.8-1.1-0.6-1.7
	c0.2-0.4,0.7-0.7,1.1-0.5c0.1,0,0.2,0.1,0.3,0.1c0.5,0.4,0.8,1,0.5,1.7c-0.1,0.4-0.6,0.7-1.1,0.5C35.6,73.7,35.6,73.6,35.5,73.6z
	 M35.5,69.4c-0.4-0.8-0.3-1.8,0.1-2.6c0.4-0.6,1-0.4,1.4,0.4c0.4,0.8,0.3,1.8-0.1,2.6C36.5,70.5,35.8,70.2,35.5,69.4z M36.9,64.1
	c-0.1-1.2,0.3-2.4,1-3.3c0.6-0.5,1.1,0.2,1.2,1.5c0.1,1.2-0.3,2.3-1,3.3C37.5,66,37,65.4,36.9,64.1z M40.4,58.1
	c0.5-1.7,1.6-3.3,2.4-3.5s1,0.9,0.5,2.6s-1.6,3.2-2.3,3.5S39.9,59.8,40.4,58.1z M46.3,52.8c1.2-1.8,3-3.1,3.9-3s0.5,1.7-0.8,3.4
	s-3,3.2-3.8,3.1S45,54.6,46.3,52.8z M54.4,49.4c2.1-1.6,4.5-2.2,5.2-1.6s-0.4,2.3-2.6,3.8S52.7,54,52,53.4S52.3,51,54.4,49.4z
	 M63.8,49.4c2.9-0.9,5.5-0.7,5.8,0.3s-1.8,2.5-4.6,3.5c-2.8,0.9-5.3,1-5.7-0.1S60.9,50.2,63.8,49.4z M72.6,53.2
	c3.2,0,5.5,1.2,5.1,2.5s-3.2,2.4-6.3,2.6s-5.3-0.9-5-2.3S69.4,53.2,72.6,53.2L72.6,53.2z M42.8,70.6c0.1-0.1,0.1-0.1,0.2-0.1
	l-0.1,0.2c-0.1,0.1-0.1,0.1-0.2,0.2C42.7,70.9,42.7,70.7,42.8,70.6z"/>
<ellipse transform="matrix(0.8486 -0.529 0.529 0.8486 -30.7176 33.5556)" class="st0" cx="43.3" cy="70.4" rx="0.3" ry="0.1"/>
<path class="st0" d="M43.7,70.2c0.1,0,0.2,0,0.3,0.1c0,0.1-0.1,0.2-0.2,0.2c-0.1,0-0.2,0-0.3-0.1C43.5,70.3,43.6,70.3,43.7,70.2z
	 M44.2,70.4c0.1,0,0.2,0.2,0.2,0.3c0,0.1-0.2,0.2-0.3,0.2c0,0,0,0,0,0c-0.1,0-0.2-0.2-0.2-0.3C43.9,70.5,44,70.4,44.2,70.4
	C44.2,70.4,44.2,70.4,44.2,70.4z"/>
<path class="st0" d="M44.5,70.9c0.1,0.1,0.1,0.3,0.1,0.5c0,0.1-0.2,0.1-0.2,0.1c0,0-0.1,0-0.1-0.1c-0.1-0.1-0.1-0.3-0.1-0.5
	C44.3,70.8,44.4,70.8,44.5,70.9C44.5,70.8,44.5,70.9,44.5,70.9z M44.7,71.8c0,0.3,0,0.5-0.1,0.7c-0.1,0.2-0.2,0.1-0.3-0.1
	c0-0.3,0-0.5,0.1-0.7C44.5,71.5,44.6,71.6,44.7,71.8z"/>
<path class="st0" d="M44.4,73.1c0,0.3-0.2,0.6-0.4,0.9c-0.2,0.2-0.3,0-0.2-0.4c0-0.3,0.2-0.6,0.4-0.9C44.4,72.6,44.5,72.7,44.4,73.1
	z"/>
<path class="st0" d="M43.7,74.7c-0.1,0.4-0.4,0.7-0.7,1c-0.2,0.1-0.2-0.2,0-0.6c0.1-0.4,0.4-0.7,0.7-1C43.9,74,43.9,74.2,43.7,74.7z
	"/>
<path class="st0" d="M42.5,76.5c-0.2,0.4-0.5,0.7-0.9,0.9c-0.2,0-0.1-0.4,0.2-0.9c0.2-0.4,0.6-0.8,1-0.9
	C42.9,75.6,42.9,76,42.5,76.5z"/>
<path class="st0" d="M40.9,78.2c-0.2,0.4-0.7,0.7-1.2,0.7c-0.2-0.1,0-0.7,0.5-1.1c0.2-0.4,0.7-0.6,1.2-0.7
	C41.5,77.2,41.3,77.7,40.9,78.2z M38.8,79.4c-0.6,0.4-1.1,0.4-1.2,0.1c0-0.5,0.3-1,0.8-1.3c0.6-0.4,1.1-0.4,1.2-0.1
	C39.6,78.7,39.3,79.2,38.8,79.4z M36.6,79.7c-0.4,0.2-0.9-0.1-1.1-0.5c0-0.1,0-0.1-0.1-0.2c0.1-0.6,0.5-1.1,1.1-1.2
	c0.4-0.2,0.9,0.1,1.1,0.5c0,0.1,0,0.1,0,0.2C37.6,79.2,37.2,79.6,36.6,79.7z"/>
<path class="st0" d="M34.5,78.5c-0.6-0.4-1-1.1-0.8-1.8c0.1-0.5,0.6-0.9,1.1-0.8c0.1,0,0.2,0,0.2,0.1c0.6,0.4,1,1.1,0.8,1.8
	c-0.1,0.5-0.6,0.9-1.1,0.8C34.7,78.6,34.6,78.6,34.5,78.5z"/>
<path class="st0" d="M33,75.4c-0.5-0.9-0.6-2-0.2-3c0.4-0.8,1.1-0.8,1.5,0c0.5,0.9,0.5,2,0.2,3C34.1,76.2,33.4,76.2,33,75.4z"/>
<path class="st0" d="M32.5,70c-0.2-1.4,0.1-2.9,0.8-4.1c0.6-0.8,1.3-0.3,1.5,1.1c0.2,1.4-0.1,2.9-0.9,4.1
	C33.3,71.9,32.7,71.5,32.5,70z M33.9,62.7c0.3-2,1.4-4.1,2.3-4.7s1.4,0.5,1,2.4s-1.4,4-2.3,4.7S33.6,64.7,33.9,62.7z M38,54.4
	c1.1-2.2,3.1-4.1,4.2-4.3s1.1,1.4-0.1,3.6s-3,4.1-4.2,4.4S36.9,56.7,38,54.4z M45.7,46.9c2.2-2,5-3.2,6.2-2.7s0.3,2.3-1.9,4.3
	s-4.8,3.3-6,3S43.5,48.9,45.7,46.9z M56.9,42.1c3.2-1.3,6.6-1.2,7.5-0.1c0.9,1.1-1,2.8-4.2,4.1s-6.4,1.6-7.3,0.4
	S53.7,43.3,56.9,42.1z M70.5,41.9c3.9,0,7.2,1.4,7.3,3s-2.9,2.8-6.6,3s-6.9-1-7.2-2.7C63.8,43.5,66.7,41.9,70.5,41.9z M83.8,47.1
	c3.8,1.4,5.9,4,4.9,5.8s-4.7,2.4-8.3,1.3s-5.8-3.7-5-5.8S80,45.8,83.8,47.1z M42.2,70.9c0.1-0.1,0.2-0.2,0.3-0.2
	c0.1,0,0,0.1-0.1,0.2c-0.1,0.1-0.2,0.2-0.3,0.2C42.1,71.1,42.1,71,42.2,70.9z M42.6,70.3c0.1-0.1,0.2-0.1,0.3-0.1c0,0,0,0.2-0.1,0.3
	c-0.1,0.1-0.2,0.1-0.3,0.1C42.4,70.6,42.5,70.4,42.6,70.3z M43.2,69.8c0.1-0.1,0.3,0,0.3,0.1c0,0.1-0.1,0.2-0.2,0.3
	c-0.1,0.1-0.3,0-0.3-0.1c0,0,0,0,0,0C42.9,70,43,69.9,43.2,69.8z M43.9,69.5c0.2,0,0.3,0.2,0.3,0.3c0,0.1-0.2,0.2-0.3,0.2
	c0,0,0,0,0,0c-0.2,0-0.3-0.2-0.3-0.3C43.6,69.6,43.7,69.5,43.9,69.5C43.8,69.5,43.8,69.5,43.9,69.5z M44.6,69.5
	c0.1,0.2,0.2,0.4,0.1,0.6c0,0.1-0.1,0.2-0.2,0.2c0,0-0.1,0-0.1-0.1c-0.1-0.2-0.2-0.4-0.1-0.6c0-0.1,0.1-0.2,0.2-0.2
	C44.5,69.5,44.6,69.5,44.6,69.5z M45.3,70c0.1,0.3,0,0.6-0.1,0.8C45,71,44.8,71,44.8,70.7c-0.1-0.3,0-0.6,0.1-0.8
	C45,69.7,45.2,69.7,45.3,70z M45.7,71c0,0.4-0.2,0.7-0.4,1.1c-0.2,0.2-0.3,0.1-0.3-0.3c0-0.4,0.2-0.8,0.4-1.1
	C45.6,70.5,45.7,70.6,45.7,71z M45.6,72.6c-0.2,0.5-0.4,0.9-0.8,1.2c-0.2,0.2-0.3-0.1-0.1-0.6c0.2-0.5,0.4-0.9,0.8-1.2
	C45.7,71.8,45.8,72.1,45.6,72.6z M45,74.7c-0.3,0.5-0.7,0.9-1.1,1.1c-0.3,0.1-0.2-0.3,0.1-0.9c0.3-0.5,0.7-0.9,1.1-1.1
	C45.4,73.7,45.3,74.1,45,74.7z M43.6,77.2c-0.3,0.5-0.8,0.8-1.4,0.9c-0.3-0.1-0.1-0.6,0.4-1.2c0.3-0.5,0.8-0.8,1.4-0.8
	C44.3,76.1,44.1,76.7,43.6,77.2z M41.5,79.9c-0.6,0.5-1.3,0.6-1.5,0.3c-0.1-0.6,0.2-1.1,0.8-1.4c0.6-0.5,1.3-0.6,1.5-0.3
	C42.4,79.2,42.1,79.7,41.5,79.9z M38.8,82.3c-0.5,0.2-1.1,0-1.3-0.5c0-0.1,0-0.1-0.1-0.2c0-0.7,0.5-1.3,1.1-1.4
	c0.5-0.2,1.1,0,1.3,0.5c0,0.1,0,0.1,0.1,0.2C39.9,81.6,39.5,82.2,38.8,82.3z M35.7,83.8c-0.7-0.3-1.2-1.1-1.1-1.9
	c0-0.6,0.5-1.1,1.1-1.2c0.1,0,0.2,0,0.3,0c0.7,0.3,1.1,1.1,1,1.9c0,0.6-0.5,1.1-1.2,1.1C35.9,83.8,35.8,83.8,35.7,83.8z M32.5,83.5
	c-0.6-1-0.7-2.3-0.4-3.4c0.3-1.1,1.1-1.3,1.6-0.5c0.6,1,0.7,2.3,0.4,3.4C33.8,84.1,33.1,84.2,32.5,83.5z M29.6,80.5
	c-0.3-1.7-0.1-3.4,0.6-5c0.6-1.2,1.4-0.9,1.7,0.6c0.3,1.7,0,3.4-0.6,4.9C30.7,82.3,29.9,82.1,29.6,80.5z M27.7,74.2
	c0.2-2.3,1.1-5,2.1-6s1.6-0.1,1.4,2.1c-0.2,2.1-0.9,4.2-2.1,6C28.2,77.4,27.6,76.5,27.7,74.2z M27.8,64.6c0.9-2.8,2.8-5.5,4.2-6.1
	s1.6,1.1,0.6,3.7c-1,2.7-2.8,5.4-4.1,6.2S26.9,67.4,27.8,64.6z M31.3,52.5c2-2.8,5-4.8,6.6-4.6s1.1,2.3-0.9,5s-4.9,4.9-6.4,4.8
	S29.3,55.3,31.3,52.5z M39.9,40.4c3.3-2,7.3-2.5,8.8-1.3s-0.1,3.4-3.3,5.3s-7,2.8-8.5,1.8S36.6,42.4,39.9,40.4z M54.7,31.6
	c4.4-0.4,8.8,1.1,9.6,3.1c0.8,2-2.1,3.8-6.4,4.3s-8.4-0.5-9.4-2.6S50.3,32,54.7,31.6z M75.1,29.5c4.8,1.6,8.2,5,7.6,7.5
	s-4.7,3.3-9.2,2s-8-4.5-7.7-7.2S70.3,27.9,75.1,29.5z M41.5,71.4c0.1-0.1,0.2-0.2,0.3-0.2c0.1,0,0.1,0.1,0,0.2
	c-0.1,0.1-0.2,0.2-0.3,0.2C41.4,71.7,41.4,71.6,41.5,71.4z M41.8,70.6c0.1-0.1,0.2-0.2,0.4-0.1c0.1,0,0,0.2-0.1,0.3
	c-0.1,0.1-0.2,0.2-0.4,0.1C41.6,70.9,41.7,70.8,41.8,70.6z M42.3,69.8c0.1-0.1,0.3-0.1,0.4,0.1c0,0.2-0.1,0.3-0.2,0.3
	c-0.1,0.1-0.3,0-0.4-0.1C42.1,69.9,42.2,69.8,42.3,69.8z M43.1,68.9c0.2,0,0.3,0.2,0.3,0.3c0,0.2-0.1,0.3-0.3,0.3c0,0,0,0,0,0
	c-0.2,0-0.3-0.1-0.3-0.3C42.8,69,42.9,68.9,43.1,68.9C43.1,68.9,43.1,68.9,43.1,68.9z M44.2,68.2c0.2,0.2,0.2,0.4,0.2,0.6
	c-0.1,0.2-0.2,0.3-0.4,0.2c-0.2-0.2-0.2-0.4-0.2-0.6C43.9,68.2,44,68.1,44.2,68.2z M45.4,68c0.1,0.3,0,0.7-0.1,0.9
	c-0.2,0.3-0.3,0.3-0.4,0c-0.1-0.3,0-0.7,0.1-0.9C45.1,67.8,45.3,67.8,45.4,68z M46.6,68.5c0,0.4-0.2,0.9-0.5,1.2
	c-0.2,0.3-0.4,0.2-0.4-0.2c0-0.4,0.2-0.9,0.5-1.2C46.4,68,46.6,68.1,46.6,68.5z M47.4,69.7c-0.2,0.5-0.5,1-0.9,1.3
	c-0.3,0.2-0.4,0-0.2-0.6c0.2-0.5,0.5-1,0.9-1.3C47.5,68.9,47.6,69.2,47.4,69.7z M47.7,71.9c-0.3,0.5-0.8,1-1.3,1.3
	c-0.4,0.1-0.3-0.3,0-0.9c0.3-0.6,0.8-1,1.3-1.3C48.1,70.9,48.1,71.2,47.7,71.9z M47,75c-0.4,0.5-1,0.9-1.7,1
	c-0.3-0.1-0.2-0.6,0.4-1.2c0.4-0.5,1-0.9,1.7-1C47.8,73.8,47.6,74.4,47,75z M45.3,78.9c-0.7,0.5-1.5,0.7-1.8,0.4s0.1-1,0.8-1.5
	c0.7-0.5,1.5-0.7,1.8-0.4S46,78.4,45.3,78.9z M42.4,83.3c-0.5,0.3-1.3,0.1-1.6-0.4c0,0-0.1-0.1-0.1-0.2c-0.1-0.7,0.4-1.4,1.2-1.6
	c0.6-0.3,1.3-0.1,1.6,0.5c0,0,0,0.1,0.1,0.1C43.6,82.5,43.1,83.1,42.4,83.3z M38.5,87.7c-0.8-0.3-1.4-1.1-1.2-2
	c-0.1-0.7,0.5-1.4,1.2-1.5c0.1,0,0.2,0,0.3,0c0.9,0.3,1.4,1.1,1.2,2c0,0.8-0.6,1.4-1.3,1.5C38.6,87.7,38.6,87.7,38.5,87.7z
	 M33.9,91.2c-0.7-1.1-0.9-2.5-0.6-3.8c0.3-1.3,1.1-1.7,1.7-0.9c0.7,1.1,0.9,2.5,0.5,3.8C35.3,91.5,34.5,92,33.9,91.2z M29,92.4
	c-0.4-1.9-0.2-3.9,0.4-5.8c0.6-1.6,1.4-1.5,1.8,0.1c0.3,1.9,0.2,3.9-0.5,5.7C30.1,94,29.4,94,29,92.4z M24.1,89.6
	c0-2.6,0.6-5.2,1.7-7.5c1-1.6,1.8-0.8,1.7,1.7c-0.1,2.6-0.7,5.1-1.8,7.4C24.8,92.9,24.1,92.2,24.1,89.6z M19.8,81.3
	c0.6-3.4,2.2-7.1,3.7-8.2s2,0.5,1.2,3.7s-2.3,6.9-3.6,8.3S19.2,84.7,19.8,81.3z M17.5,66.9c1.6-3.7,4.5-6.8,6.4-7.1s1.8,2.2,0.1,5.6
	c-1.8,3.5-4.4,6.8-6.1,7.3C16.2,73.3,16,70.6,17.5,66.9z M19.7,47.5c3-3.1,7.4-4.5,9.4-3.5s1,3.9-2.1,6.8s-7,4.8-9,4
	S16.7,50.5,19.7,47.5z M30.2,26.9c4.7-1.2,10,0,11.6,2.4s-1,5.1-5.5,6.4s-9.4,0.7-11.2-1.8S25.5,28.2,30.2,26.9z M52.4,11.7
	c5.8,1.5,10.7,5.7,10.9,9s-4.1,4.9-9.5,3.7s-10.2-4.9-10.8-8.6S46.5,10.2,52.4,11.7z M41,71.2c0.1-0.1,0.3-0.2,0.4-0.2
	c0.1,0,0,0.2-0.1,0.3c-0.1,0.1-0.3,0.2-0.4,0.2C40.8,71.5,40.8,71.3,41,71.2z M41.4,70c0.1-0.1,0.3-0.1,0.5,0c0,0.2-0.1,0.3-0.2,0.4
	c0,0,0,0,0,0c-0.1,0.1-0.3,0.1-0.4,0C41.1,70.2,41.2,70,41.4,70z M42.2,68.6c0.2,0,0.4,0.2,0.4,0.4c0,0.2-0.1,0.3-0.3,0.3
	c0,0,0,0,0,0c-0.2,0-0.4-0.2-0.4-0.4C41.8,68.8,42,68.6,42.2,68.6C42.2,68.6,42.2,68.6,42.2,68.6z M43.5,67.3
	c0.2,0.2,0.3,0.4,0.2,0.7c-0.1,0.3-0.3,0.4-0.4,0.2c-0.2-0.2-0.3-0.4-0.2-0.7C43.1,67.3,43.3,67.2,43.5,67.3z M45.1,66.4
	c0.1,0.4,0.1,0.7-0.1,1.1c-0.2,0.3-0.4,0.3-0.5,0.1c-0.1-0.4-0.1-0.7,0.1-1.1C44.8,66.1,45,66.1,45.1,66.4z M47,66.1
	c0,0.5-0.2,1-0.5,1.4c-0.3,0.3-0.5,0.2-0.5-0.2c0-0.5,0.2-1,0.5-1.4C46.9,65.5,47.1,65.6,47,66.1z M48.9,66.8
	c-0.2,0.6-0.5,1.1-1,1.5c-0.4,0.3-0.5,0-0.3-0.5c0.2-0.6,0.5-1.1,1-1.5C48.9,66,49,66.2,48.9,66.8z M50.2,68.7
	c-0.4,0.6-0.9,1.1-1.6,1.5c-0.4,0.2-0.5-0.2-0.1-0.9c0.4-0.6,0.9-1.1,1.6-1.4C50.6,67.6,50.6,68,50.2,68.7z M50.5,72
	c-0.5,0.6-1.2,1-1.9,1.1c-0.4,0-0.3-0.6,0.3-1.3c0.5-0.6,1.2-1,2-1.1C51.3,70.7,51.1,71.3,50.5,72z M49.4,76.6
	c-0.8,0.6-1.7,0.8-2.1,0.5c-0.4-0.3,0-1,0.8-1.6c0.6-0.5,1.4-0.7,2.1-0.5C50.5,75.4,50.2,76.1,49.4,76.6z M46.6,82.6
	c-0.7,0.4-1.5,0.2-1.9-0.5c0,0,0,0,0,0c-0.1-0.8,0.4-1.6,1.2-1.8c0.7-0.4,1.5-0.1,1.9,0.5c0,0,0,0,0,0
	C47.9,81.7,47.4,82.4,46.6,82.6z M42.3,89.6c-0.9-0.2-1.5-1.1-1.4-2c-0.1-0.9,0.6-1.7,1.4-1.7c0.1,0,0.1,0,0.2,0
	c0.9,0.2,1.5,1.1,1.4,2C43.9,88.7,43.2,89.5,42.3,89.6C42.3,89.5,42.3,89.5,42.3,89.6z M36.7,96.7c-0.8-1.2-1-2.7-0.7-4.1
	c0.3-1.5,1.2-2.1,1.8-1.3c0.7,1.2,1,2.6,0.6,4C38.1,96.8,37.3,97.5,36.7,96.7z M30.2,102.7c-0.4-2.2-0.3-4.4,0.3-6.5
	c0.6-1.9,1.5-2.1,1.9-0.4c0.4,2.1,0.3,4.3-0.4,6.4C31.5,104.1,30.7,104.4,30.2,102.7z M23.3,105.2c-0.1-3,0.3-6.1,1.4-8.9
	c1-2.1,1.8-1.5,1.9,1.2c0,3-0.5,6-1.5,8.8C24.3,108.6,23.5,108.1,23.3,105.2z M16,101.3c0.2-4,1.6-8.6,3-10.4s2.2-0.2,1.7,3.5
	s-1.8,8.4-3,10.5S15.8,105.3,16,101.3z M8.7,88.1c1-4.7,3.6-9,5.5-9.9s2.3,1.8,1,6.2c-1.3,4.4-3.6,9-5.2,10.2S7.6,92.7,8.7,88.1z
	 M3.2,64.2c2.5-4.3,6.7-7,9.1-6.3s2,4.3-0.7,8.3c-2.7,4.1-6.3,7.3-8.6,6.8C0.9,72.6,0.8,68.6,3.2,64.2z M4.6,32.4
	c4.6-2.5,10.6-1.9,12.9,0.7s0.4,6.4-4,8.9s-9.8,2.6-12.3,0S0,34.8,4.6,32.4z M20.9,0.2c6.6,1,13.1,5.6,14.2,9.9s-2.9,7.1-9,6.5
	s-12.3-4.6-14-9.3S14.2-0.8,20.9,0.2z"/>
<path class="st1" d="M105,72.5V45.4h-9.8V43c0-1.9,1.5-3.4,3.4-3.4c0,0,0,0,0,0h22.8v5.8h-9.7v27.1H105z M139.9,54.2
	c-0.9-1.3-2.4-2.1-3.9-2c-1.6-0.1-3.2,0.6-4.1,1.9c-1,1.6-1.5,3.4-1.4,5.3v13.1h-6.5v-33h3.3c1.8,0,3.3,1.5,3.3,3.3v7.6
	c1.1-1.8,2.8-3.2,4.9-3.6c2-0.5,4.1-0.4,6,0.4c1.8,0.8,3.4,2,4.5,3.6c1.3,2,2,4.5,1.8,6.9v14.8h-6.4V59.2c0-0.9-0.1-1.7-0.2-2.6
	C140.8,55.8,140.4,55,139.9,54.2z M167.8,64.6h4.8c-0.6,2.5-2,4.6-4,6.1c-2.2,1.5-4.8,2.3-7.5,2.2c-3.2,0.2-6.4-1.1-8.5-3.6
	c-2-2.3-3.1-5.6-3.1-9.9c0-4.1,1-7.3,3-9.6c2.2-2.4,5.3-3.7,8.5-3.5c3.8,0,6.8,1.2,8.9,3.4c2.1,2.3,3.1,5.6,3.1,9.9v1.1
	c0,0.2,0,0.5-0.1,0.7h-16.6c-0.1,1.6,0.4,3.2,1.4,4.4c0.9,1.1,2.3,1.6,3.7,1.5c1,0,1.9-0.2,2.8-0.7c0.2-0.1,0.4-0.2,0.5-0.3l0.5-0.5
	c0.2-0.3,0.4-0.6,0.7-0.8C166.5,64.8,167.2,64.6,167.8,64.6L167.8,64.6z M156.3,57.2h9.8c0-1.4-0.5-2.7-1.3-3.8
	c-0.9-0.9-2.2-1.4-3.6-1.3c-1.3,0-2.5,0.4-3.4,1.3C156.8,54.4,156.3,55.8,156.3,57.2L156.3,57.2z"/>
<path class="st0" d="M60.2,115.7V71.2c0-2.9,2.3-5.2,5.1-5.2c0,0,0,0,0,0h18.9c5.4,0,9.4,1.2,12,3.5c2.6,2.3,3.9,5.8,4,10.5
	c0.1,2.7-0.6,5.4-2,7.7c-1.3,2-3.2,3.5-5.5,4.2c1.9,0.5,3.6,1.8,4.6,3.5c0.9,1.4,1.4,3.9,1.6,7.4l0.3,5.9v1.9c0,0.6,0,1.3,0.1,1.9
	c0.3,1.7,0.9,2.8,1.7,3.3H89.9c-0.5-0.9-0.8-2-0.9-3c-0.2-1.1-0.2-2.1-0.3-3.2l-0.1-5.3c-0.2-2.9-0.8-5-1.7-6.2
	c-1.1-1.1-2.9-1.6-5.6-1.6H70.5v19.3L60.2,115.7L60.2,115.7z M70.5,87.7h12c2.6,0,4.5-0.5,5.8-1.6c2.5-2.8,2.5-7,0-9.8
	c-1.4-1.3-3.3-1.9-5.2-1.7H70.5L70.5,87.7L70.5,87.7z M131.3,103.8h7.2c-0.8,3.7-3,7-6.1,9.2c-3.3,2.3-7.2,3.5-11.2,3.3
	c-5.5,0-9.8-1.8-12.8-5.3s-4.6-8.5-4.6-14.9c0-6.2,1.5-11,4.5-14.4c3-3.5,7.3-5.2,12.8-5.3c5.8,0,10.2,1.7,13.4,5.2
	c3.2,3.5,4.7,8.4,4.6,14.9v1.6c0,0.3,0,0.7-0.1,1H114c0.1,3,0.8,5.2,2.2,6.6c1.4,1.6,3.5,2.5,5.6,2.3c1.5,0,2.9-0.3,4.2-1
	c0.3-0.1,0.6-0.3,0.8-0.5l0.8-0.8c0.3-0.5,0.6-0.9,1.1-1.1C129.4,104,130.4,103.8,131.3,103.8L131.3,103.8z M114,92.6h14.7
	c0-2.1-0.7-4.1-2-5.8c-1.4-1.4-3.4-2.1-5.3-2c-1.9-0.1-3.8,0.6-5.2,2C114.7,88.4,114,90.4,114,92.6z M141.7,103h9.8
	c0,1.7,0.8,3.3,2.2,4.3c1.7,1,3.7,1.5,5.8,1.4c1.6,0,3.1-0.3,4.5-1c1.1-0.5,1.7-1.6,1.7-2.7c0-1.7-2-3-6.1-3.9
	c-1.3-0.2-2.6-0.5-3.9-0.9c-5.1-1.3-8.5-2.7-10.2-4.5c-1.9-1.8-3-4.3-2.9-6.9c-0.1-3.5,1.5-6.9,4.2-9.1c2.9-2.2,6.6-3.3,11.2-3.3
	c5,0,9,1.1,12,3.3c2.8,2.3,4.4,5.8,4.5,9.4h-6.2c-1.7,0-3.4-0.9-4.2-2.4l-1.1-1.1c-1.4-0.9-3.1-1.4-4.8-1.3c-1.5-0.1-3,0.2-4.3,0.9
	c-0.9,0.6-1.4,1.6-1.3,2.6c0,1.5,2.5,2.8,7.5,3.9c0.5,0.2,1,0.3,1.5,0.4c0.4,0.1,0.8,0.1,1.2,0.1c4.9,1.3,8.3,2.7,10.2,4.3
	c1.9,1.8,2.9,4.3,2.7,6.9c0.2,3.8-1.5,7.5-4.6,9.8c-2.9,2.1-7.2,3.2-13,3.2c-5.5,0-9.6-1.1-12.3-3.3c-2.7-2.2-4.1-5.4-4.2-9.7
	L141.7,103L141.7,103z M226.3,115.7h-5c-2.6,0.1-4.8-1.9-4.9-4.5c0-0.1,0-0.3,0-0.4V91.1c0-2.3-0.7-4-2.1-5c-1.3-1-3-1.6-4.7-1.6
	c-1.7,0-3.3,0.5-4.6,1.6c-1.3,1.1-2,2.7-2,5v24.5h-10.2V93.2c0-6.5,1.7-10.9,5.1-13.1c3.4-2.2,7.3-3.4,11.3-3.6
	c4.1,0,8.2,1.1,11.7,3.3c3.6,2.2,5.3,6.7,5.3,13.4L226.3,115.7L226.3,115.7z"/>
<path class="st1" d="M229.7,115.7V71.2c0-1.4,0.5-2.7,1.5-3.7c1-1,2.3-1.6,3.7-1.7h10l9.8,37.9l9.8-37.9h15.1v49.8h-9.5V75.6
	L260,115.7h-10.5l-10.2-40.1v40.1H229.7z M283.6,66h5.2c2.7,0,4.9,2.2,4.9,4.9v3h-10.1L283.6,66L283.6,66z M283.6,77.3h5.2
	c2.7,0,4.9,2.2,4.9,4.9v33.5h-10.1L283.6,77.3L283.6,77.3z M297.6,66h5.2c1.3,0,2.5,0.5,3.5,1.4c0.9,0.9,1.5,2.1,1.4,3.4v44.9h-10.1
	L297.6,66L297.6,66z M311.7,66h5.2c1.3,0,2.5,0.5,3.5,1.4c0.9,0.9,1.5,2.1,1.4,3.4v44.9h-10.1L311.7,66L311.7,66z"/>
<path class="st0" d="M179.2,77.2h5.2c2.7,0,4.9,2.2,4.9,4.9v33.5h-10.1V77.2z M184.5,46.4c0,0,0,10.6,3.2,14.3
	c3.2,3.7,4.8,12.3-3.2,12.3H184c-7.9,0-6.3-8.6-3.2-12.3C184,57,184,46.4,184,46.4"/>
<path class="st2" d="M187.8,63.1c0,0,2.6,4.3,0,7.8C188.4,68.4,188.4,65.7,187.8,63.1z"/>
<polygon class="st3" points="335.2,154 51.1,154 53.2,127.2 337.3,127.2 357.5,140.6 "/>
<text transform="matrix(1 0 0 1 89.2993 147.0605)" class="st2 st4 st5">APPROVED CONTRACTOR</text>
<polygon class="st2" points="56.3,154 54.7,154 56.8,127.2 58.4,127.2 "/>
<polygon class="st2" points="64.8,154 63.2,154 65.3,127.2 66.9,127.2 "/>
<polygon class="st2" points="74.9,154 73.3,154 75.4,127.2 77,127.2 "/>
</svg>
