<svg width="311" height="100" viewBox="0 0 311 100" fill="none" xmlns="http://www.w3.org/2000/svg">
<g clip-path="url(#clip0_16018_72452)">
<path d="M113.898 85.4724H114.759V90.4893H121.462V85.4724H122.323V96.4912H121.462V91.2588H114.759V96.4912H113.898V85.4724Z" fill="#1D1D1B"/>
<path d="M123.922 94.4598C123.922 92.8285 125.306 92.3668 126.813 92.0283C127.981 91.7513 129.058 91.5974 129.396 91.0434V90.951C129.396 89.7814 128.781 89.1659 127.305 89.1659C125.829 89.1659 124.999 89.6583 124.968 90.9818V91.0434H124.138C124.138 89.289 125.491 88.4579 127.336 88.4579C129.181 88.4579 130.226 89.3505 130.226 91.1049V96.4604H129.396V94.9215C128.719 96.245 127.582 96.6143 126.536 96.6143C124.906 96.6143 123.922 95.6909 123.922 94.3982V94.4598ZM129.427 93.8134V91.7821C128.965 92.2745 127.92 92.4284 126.967 92.6439C125.829 92.9209 124.814 93.2594 124.814 94.4598C124.814 95.6602 125.429 96.0295 126.628 96.0295C127.828 96.0295 129.058 95.26 129.427 93.8134Z" fill="#1D1D1B"/>
<path d="M132.194 88.6734H132.963V90.397C133.27 89.2582 133.947 88.6426 135.392 88.6426H135.853V89.4121H135.238C133.486 89.4121 133.024 90.5201 133.024 92.6131V96.4912H132.194V88.6734Z" fill="#1D1D1B"/>
<path d="M136.284 92.5823C136.284 90.12 137.729 88.4887 139.912 88.4887C142.096 88.4887 142.219 89.1659 142.803 90.2739V85.3185H143.602V96.4912H142.803V94.8907C142.249 95.9987 141.235 96.6759 139.912 96.6759C137.76 96.6759 136.284 95.1062 136.284 92.5823ZM142.834 92.6439V92.5208C142.834 90.5509 141.788 89.1967 140.035 89.1967C138.283 89.1967 137.176 90.4894 137.176 92.5208V92.6746C137.176 94.706 138.252 95.968 140.035 95.968C141.819 95.968 142.834 94.5829 142.834 92.6439Z" fill="#1D1D1B"/>
<path d="M148.922 85.3185H149.721V96.4912H148.922V85.3185Z" fill="#1D1D1B"/>
<path d="M151.29 94.4598C151.29 92.8285 152.674 92.3668 154.18 92.0283C155.349 91.7513 156.425 91.5974 156.763 91.0434V90.951C156.763 89.7814 156.148 89.1659 154.672 89.1659C153.196 89.1659 152.366 89.6583 152.335 90.9818V91.0434H151.505C151.505 89.289 152.858 88.4579 154.703 88.4579C156.548 88.4579 157.594 89.3505 157.594 91.1049V96.4604H156.763V94.9215C156.087 96.245 154.949 96.6143 153.904 96.6143C152.274 96.6143 151.29 95.6909 151.29 94.3982V94.4598ZM156.794 93.8134V91.7821C156.333 92.2745 155.287 92.4284 154.334 92.6439C153.196 92.9209 152.182 93.2594 152.182 94.4598C152.182 95.6602 152.797 96.0295 153.996 96.0295C155.195 96.0295 156.425 95.26 156.794 93.8134Z" fill="#1D1D1B"/>
<path d="M159.562 88.6734H160.361V90.7664C160.761 89.3506 161.714 88.5195 163.19 88.5195C164.666 88.5195 165.896 89.5968 165.896 91.5358V96.522H165.066V91.5974C165.066 90.0585 164.297 89.2582 163.067 89.2582C161.253 89.2582 160.423 90.7664 160.423 93.3826V96.522H159.592V88.7042L159.562 88.6734Z" fill="#1D1D1B"/>
<path d="M167.311 92.5823C167.311 90.12 168.756 88.4887 170.939 88.4887C173.122 88.4887 173.245 89.1659 173.83 90.2739V85.3185H174.629V96.4912H173.83V94.8907C173.276 95.9987 172.261 96.6759 170.939 96.6759C168.787 96.6759 167.311 95.1062 167.311 92.5823ZM173.83 92.6439V92.5208C173.83 90.5509 172.784 89.1967 171.031 89.1967C169.279 89.1967 168.172 90.4894 168.172 92.5208V92.6746C168.172 94.706 169.248 95.968 171.031 95.968C172.815 95.968 173.83 94.5829 173.83 92.6439Z" fill="#1D1D1B"/>
<path d="M175.921 95.1985L176.536 94.7676C177.274 95.6909 178.35 95.9987 179.272 95.9987C180.195 95.9987 181.24 95.4139 181.24 94.429C181.24 93.4441 180.226 93.1363 178.842 92.7977C177.243 92.4284 176.197 92.0591 176.197 90.6125C176.197 89.1659 177.304 88.4579 178.811 88.4579C180.318 88.4579 181.056 88.9504 181.855 89.8122L181.271 90.2739C180.656 89.5352 179.734 89.1043 178.811 89.1043C177.889 89.1043 176.997 89.6891 176.997 90.5509C176.997 91.4127 177.796 91.7205 179.242 92.0591C180.625 92.3668 182.04 92.8593 182.04 94.3059C182.04 95.7525 180.933 96.6143 179.272 96.6143C177.612 96.6143 176.659 96.1218 175.921 95.1369V95.1985Z" fill="#1D1D1B"/>
<path d="M183.024 92.5823C183.024 90.1508 184.561 88.4888 186.868 88.4888C189.174 88.4888 190.004 89.5968 190.404 91.1973L189.604 91.382C189.328 90.0585 188.405 89.1659 186.898 89.1659C185.392 89.1659 183.885 90.4894 183.885 92.5208V92.5823C183.885 94.5829 185.023 95.9372 186.868 95.9372C188.713 95.9372 189.328 95.0139 189.604 93.6904L190.404 93.875C190.004 95.5371 188.774 96.6143 186.837 96.6143C184.9 96.6143 183.024 94.9523 183.024 92.5208V92.5823Z" fill="#1D1D1B"/>
<path d="M191.357 94.4598C191.357 92.8285 192.741 92.3668 194.248 92.0283C195.416 91.7513 196.492 91.5974 196.831 91.0434V90.951C196.831 89.7814 196.216 89.1659 194.74 89.1659C193.264 89.1659 192.433 89.6583 192.403 90.9818V91.0434H191.572C191.572 89.289 192.925 88.4579 194.77 88.4579C196.615 88.4579 197.661 89.3505 197.661 91.1049V96.4604H196.831V94.9215C196.154 96.245 195.016 96.6143 193.971 96.6143C192.341 96.6143 191.357 95.6909 191.357 94.3982V94.4598ZM196.831 93.8134V91.7821C196.369 92.2745 195.324 92.4284 194.371 92.6439C193.233 92.9209 192.218 93.2594 192.218 94.4598C192.218 95.6602 192.833 96.0295 194.032 96.0295C195.232 96.0295 196.462 95.26 196.831 93.8134Z" fill="#1D1D1B"/>
<path d="M199.629 88.6734H200.428V90.2432C200.982 89.1659 201.997 88.4888 203.288 88.4888C205.471 88.4888 206.917 90.0585 206.917 92.5516C206.917 95.0446 205.471 96.6759 203.288 96.6759C201.105 96.6759 201.013 96.0296 200.428 94.9523V99.5383H199.629V88.6734ZM206.056 92.6439V92.49C206.056 90.4586 204.979 89.1967 203.196 89.1967C201.412 89.1967 200.398 90.5509 200.398 92.5208V92.6439C200.398 94.6137 201.474 95.968 203.196 95.968C204.918 95.968 206.056 94.6753 206.056 92.6439Z" fill="#1D1D1B"/>
<path d="M208.27 86.1804H209.284V87.1961H208.27V86.1804ZM208.362 88.6734H209.192V96.4912H208.362V88.6734Z" fill="#1D1D1B"/>
<path d="M211.283 88.6734H212.083V90.7664C212.482 89.3506 213.436 88.5195 214.912 88.5195C216.388 88.5195 217.618 89.5968 217.618 91.5358V96.522H216.787V91.5974C216.787 90.0585 216.019 89.2582 214.789 89.2582C212.974 89.2582 212.144 90.7664 212.144 93.3826V96.522H211.314V88.7042L211.283 88.6734Z" fill="#1D1D1B"/>
<path d="M218.786 97.9685C218.786 97.076 219.493 96.4604 220.6 96.1526C219.586 95.9679 219.032 95.4755 219.032 94.7368C219.032 93.9981 219.524 93.5056 220.477 93.3517C219.77 92.8593 219.34 92.0898 219.34 91.1665C219.34 89.566 220.693 88.3656 222.445 88.3656C224.198 88.3656 224.629 88.9196 225.121 89.7814C225.336 89.1658 225.736 88.6734 226.627 88.6734V89.5352C226.074 89.3505 225.613 89.5968 225.336 90.2431C225.428 90.5509 225.49 90.8279 225.49 91.1665C225.49 92.8285 224.29 93.875 222.415 93.875C220.539 93.875 221.677 93.8134 221.338 93.7211C220.108 93.598 219.739 94.0597 219.739 94.6137C219.739 95.1677 220.447 95.5986 221.707 95.5986H222.937C225.428 95.5986 226.474 96.2142 226.474 97.63C226.474 99.0458 225.059 99.9692 222.476 99.9692C219.893 99.9692 218.786 99.3228 218.786 97.9378V97.9685ZM225.736 97.7223C225.736 96.7374 224.998 96.3988 222.876 96.3988H222.138C220.6 96.4296 219.524 97.076 219.524 97.9378C219.524 98.7996 220.477 99.3844 222.507 99.3844C224.536 99.3844 225.736 98.7996 225.736 97.7223ZM224.721 91.1972C224.721 89.8738 223.798 89.0427 222.445 89.0427C221.092 89.0427 220.139 89.8738 220.139 91.1357C220.139 92.4592 221 93.2286 222.384 93.2286C223.768 93.2286 224.69 92.4592 224.69 91.1665L224.721 91.1972Z" fill="#1D1D1B"/>
<path d="M227.611 95.1061H228.933V96.4912H227.611V95.1061Z" fill="#1D1D1B"/>
<path d="M233.3 85.4724H237.513L239.542 92.5207L241.633 85.4724H245.754V96.4912H243.14V87.5961L240.342 96.4912H238.251L235.576 87.6577V96.4912H233.3V85.4724Z" fill="#1D1D1B"/>
<path d="M246.769 94.4598C246.769 92.7054 248.152 92.3053 249.813 91.9667C251.166 91.6897 251.965 91.6281 251.996 91.1972V91.1357C251.996 90.6432 251.627 90.3046 250.735 90.3046C249.844 90.3046 249.382 90.7663 249.352 91.3819V91.505H246.953C246.984 89.6891 248.398 88.4887 250.797 88.4887C253.195 88.4887 254.456 89.4428 254.456 91.7205V96.4912H251.996V95.4139C251.535 96.2142 250.643 96.7066 249.475 96.7066C248.306 96.7066 246.799 95.814 246.799 94.429L246.769 94.4598ZM251.996 93.4749V92.7054C251.627 92.8901 251.043 93.0132 250.52 93.1671C249.813 93.3517 249.29 93.598 249.29 94.2751C249.29 94.9522 249.628 95.0753 250.274 95.0753C250.92 95.0753 251.935 94.6752 252.027 93.5056L251.996 93.4749Z" fill="#1D1D1B"/>
<path d="M255.379 92.6131C255.379 90.1508 256.824 88.4887 258.853 88.4887C260.883 88.4887 260.637 88.9196 261.16 89.6275V85.3801H263.65V96.522H261.19V95.5678C260.637 96.2757 259.807 96.7374 258.823 96.7374C256.824 96.7374 255.348 95.1677 255.348 92.6438L255.379 92.6131ZM261.252 92.6438V92.4592C261.252 91.1049 260.698 90.3662 259.622 90.3662C258.546 90.3662 257.992 91.0741 257.992 92.5515V92.7054C257.992 94.152 258.607 94.7984 259.622 94.7984C260.637 94.7984 261.252 93.9981 261.252 92.6438Z" fill="#1D1D1B"/>
<path d="M264.696 92.6438C264.696 90.1815 266.326 88.5195 268.786 88.5195C271.246 88.5195 272.752 90.0892 272.752 92.6746V93.2902H267.125C267.248 94.3674 267.925 94.8907 268.939 94.8907C269.954 94.8907 270.446 94.3982 270.692 93.7518L272.722 94.3674C272.199 95.7832 271.03 96.6758 268.847 96.6758C266.664 96.6758 264.727 95.1061 264.727 92.6438H264.696ZM270.262 91.8128C270.2 90.7663 269.708 90.2431 268.724 90.2431C267.74 90.2431 267.217 90.7971 267.094 91.8128H270.231H270.262Z" fill="#1D1D1B"/>
<path d="M276.688 92.6438C276.688 90.1815 278.318 88.5195 280.778 88.5195C283.238 88.5195 284.745 90.0892 284.745 92.6746V93.2902H279.118C279.241 94.3674 279.917 94.8907 280.932 94.8907C281.947 94.8907 282.439 94.3982 282.685 93.7518L284.714 94.3674C284.191 95.7832 283.023 96.6758 280.84 96.6758C278.656 96.6758 276.719 95.1061 276.719 92.6438H276.688ZM282.254 91.8128C282.193 90.7663 281.701 90.2431 280.717 90.2431C279.733 90.2431 279.21 90.7971 279.087 91.8128H282.223H282.254Z" fill="#1D1D1B"/>
<path d="M285.391 94.4598C285.391 92.7054 286.774 92.3053 288.435 91.9667C289.788 91.6897 290.587 91.6281 290.618 91.1972V91.1357C290.618 90.6432 290.249 90.3046 289.357 90.3046C288.466 90.3046 288.004 90.7663 287.974 91.3819V91.505H285.575C285.606 89.6891 287.02 88.4887 289.419 88.4887C291.817 88.4887 293.078 89.4428 293.078 91.7205V96.4912H290.618V95.4139C290.157 96.2142 289.265 96.7066 288.097 96.7066C286.928 96.7066 285.421 95.814 285.421 94.429L285.391 94.4598ZM290.649 93.4749V92.7054C290.28 92.8901 289.696 93.0132 289.173 93.1671C288.466 93.3517 287.943 93.598 287.943 94.2751C287.943 94.9522 288.281 95.0753 288.927 95.0753C289.573 95.0753 290.587 94.6752 290.68 93.5056L290.649 93.4749Z" fill="#1D1D1B"/>
<path d="M293.908 95.2293L295.446 94.0289C295.969 94.6137 296.737 95.0138 297.537 95.0138C298.336 95.0138 298.582 94.7676 298.582 94.3059C298.582 93.8442 297.814 93.7211 296.768 93.4749C295.446 93.1979 294.031 92.6438 294.031 91.0434C294.031 89.4429 295.415 88.4579 297.291 88.4579C299.167 88.4579 300.151 89.0735 300.95 89.9969C300.95 90.0277 299.443 91.1357 299.443 91.1357C298.921 90.5509 298.213 90.1816 297.414 90.1816C296.614 90.1816 296.399 90.4278 296.399 90.8587C296.399 91.2896 296.86 91.4127 298.029 91.6589C299.382 91.9359 300.981 92.4284 300.981 94.0905C300.981 95.7525 299.566 96.7374 297.66 96.7374C295.753 96.7374 294.739 96.1218 293.908 95.1985V95.2293Z" fill="#1D1D1B"/>
<path d="M301.596 97.6608H302.611C303.41 97.6608 303.687 97.5377 304.025 96.4604L301.042 88.6734H303.687L305.378 93.8134L306.946 88.6734H309.191L306.239 97.2607C305.624 98.8919 304.794 99.6306 302.887 99.6306H301.596V97.6916V97.6608Z" fill="#1D1D1B"/>
<path d="M308.453 93.8134H311.158V96.4912H308.453V93.8134Z" fill="#1D1D1B"/>
<path d="M181.333 46.876C178.412 46.876 176.198 47.8301 174.722 49.7384C173.246 51.6467 172.507 54.2013 172.507 57.4023V69.4676H166.573V41.305H172.507V46.9683C173.461 45.2139 174.752 43.7673 176.382 42.6285C178.012 41.4897 179.764 40.9049 181.579 40.8741L181.64 46.8452H181.333V46.876Z" fill="#1D1D1B"/>
<path d="M11.0392 20.9603L23.37 32.7793V71.0372L11.0392 59.5875V20.9603Z" fill="#D10A10"/>
<path d="M0 49.5537V30.04L11.0392 20.9603V40.474L0 49.5537Z" fill="#D10A10"/>
<path d="M23.37 13.358L39.5445 0V19.4829L23.37 32.7793V13.358Z" fill="#D10A10"/>
<path d="M11.0392 40.474L0 30.04L11.0392 20.9603V40.474Z" fill="#1D1D1B"/>
<path d="M34.4707 23.6688L23.37 13.358V32.7793L34.4707 23.6688Z" fill="#1D1D1B"/>
<path d="M95.8785 65.6818C93.0495 68.4826 89.544 69.8984 85.3005 69.8984C81.057 69.8984 77.5515 68.4826 74.7225 65.6818C71.8935 62.8809 70.479 59.4337 70.479 55.4017C70.479 51.3697 71.8935 47.9225 74.7225 45.1216C77.5515 42.3207 81.057 40.9049 85.3005 40.9049C89.544 40.9049 93.0495 42.3207 95.8785 45.1216C98.7075 47.9225 100.122 51.3697 100.122 55.4017C100.122 59.4337 98.7075 62.8809 95.8785 65.6818ZM78.9353 62.0499C80.5958 63.7735 82.7483 64.6045 85.3005 64.6045C87.8528 64.6045 90.0053 63.7427 91.6658 62.0499C93.3263 60.3263 94.1872 58.141 94.1872 55.4017C94.1872 52.6624 93.357 50.4771 91.6658 48.7535C90.0053 47.0299 87.8528 46.1988 85.3005 46.1988C82.7483 46.1988 80.5958 47.0606 78.9353 48.7535C77.2748 50.4771 76.4138 52.6932 76.4138 55.4017C76.4138 58.1102 77.244 60.3263 78.9353 62.0499Z" fill="#1D1D1B"/>
<path d="M118.726 40.9049C122.508 40.9049 125.737 42.1976 128.412 44.8138C131.087 47.43 132.44 50.908 132.44 55.2478C132.44 59.5876 131.118 63.1271 128.443 65.8356C125.767 68.5442 122.692 69.8984 119.125 69.8984C115.558 69.8984 112.391 68.3595 109.593 65.2508V69.4983H103.658V30.2247H109.593V46.2604C111.93 42.69 114.974 40.9049 118.726 40.9049ZM109.47 55.4632C109.47 58.141 110.269 60.3262 111.899 62.0498C113.529 63.7735 115.497 64.6045 117.834 64.6045C120.171 64.6045 122.2 63.7427 123.922 62.0498C125.644 60.357 126.505 58.1717 126.505 55.4632C126.505 52.7547 125.644 50.5078 123.953 48.7534C122.262 46.9683 120.232 46.0757 117.865 46.0757C115.497 46.0757 113.498 46.9683 111.899 48.7534C110.269 50.5386 109.47 52.7547 109.47 55.4632Z" fill="#1D1D1B"/>
<path d="M163.252 57.9871H141.204C141.358 60.0185 142.28 61.6805 144.002 62.9425C145.724 64.2044 147.692 64.82 149.937 64.82C153.473 64.82 156.148 63.7119 157.963 61.4959L161.345 65.1893C158.301 68.3287 154.365 69.8984 149.506 69.8984C144.648 69.8984 142.188 68.575 139.42 65.9588C136.653 63.3426 135.269 59.803 135.269 55.3709C135.269 50.9388 136.684 47.43 139.513 44.8138C142.342 42.1976 145.663 40.9049 149.476 40.9049C153.289 40.9049 156.548 42.0745 159.223 44.3829C161.899 46.6913 163.252 49.8923 163.252 53.9243V57.9871ZM141.173 53.3395H157.286C157.286 50.9695 156.548 49.1536 155.072 47.8917C153.596 46.6297 151.782 45.9834 149.599 45.9834C147.415 45.9834 145.478 46.6605 143.756 47.984C142.034 49.3075 141.173 51.0927 141.173 53.3395Z" fill="#1D1D1B"/>
<path d="M191.357 54.2321V69.4675H185.422V41.305H191.357V46.4451C192.218 44.7215 193.479 43.3672 195.201 42.3823C196.923 41.3974 198.737 40.9049 200.736 40.9049C205.164 40.9049 208.177 42.7516 209.776 46.4143C212.575 42.7516 216.019 40.9049 220.201 40.9049C224.383 40.9049 225.951 41.8898 227.888 43.8289C229.856 45.7679 230.809 48.5688 230.809 52.2315V69.4983H224.875V54.0474C224.875 48.8458 222.722 46.2604 218.417 46.2604C214.112 46.2604 214.666 46.9068 213.159 48.1995C211.652 49.4922 210.883 51.3697 210.791 53.832V69.4983H204.856V54.0474C204.856 51.3697 204.395 49.3998 203.442 48.1379C202.489 46.876 200.982 46.2604 198.952 46.2604C196.923 46.2604 195.139 46.9375 193.602 48.2918C192.064 49.6461 191.326 51.6467 191.326 54.2321" fill="#1D1D1B"/>
<path d="M259.407 65.6818C256.578 68.4826 253.072 69.8984 248.829 69.8984C244.585 69.8984 241.08 68.4826 238.251 65.6818C235.422 62.8809 234.007 59.4337 234.007 55.4017C234.007 51.3697 235.422 47.9225 238.251 45.1216C241.08 42.3207 244.585 40.9049 248.829 40.9049C253.072 40.9049 256.578 42.3207 259.407 45.1216C262.236 47.9225 263.65 51.3697 263.65 55.4017C263.65 59.4337 262.236 62.8809 259.407 65.6818ZM242.464 62.0499C244.124 63.7735 246.246 64.6045 248.829 64.6045C251.412 64.6045 253.534 63.7427 255.194 62.0499C256.855 60.3263 257.716 58.141 257.716 55.4017C257.716 52.6624 256.885 50.4771 255.194 48.7535C253.534 47.0299 251.381 46.1988 248.829 46.1988C246.277 46.1988 244.124 47.0606 242.464 48.7535C240.803 50.4771 239.942 52.6932 239.942 55.4017C239.942 58.1102 240.772 60.3263 242.464 62.0499Z" fill="#1D1D1B"/>
<path d="M281.916 46.876C278.995 46.876 276.781 47.8301 275.305 49.7384C273.829 51.6467 273.091 54.2013 273.091 57.4023V69.4676H267.156V41.305H273.091V46.9683C274.044 45.2139 275.335 43.7673 276.965 42.6285C278.595 41.4897 280.348 40.9049 282.162 40.8741L282.223 46.8452H281.916V46.876Z" fill="#1D1D1B"/>
<path d="M311.159 57.9871H289.112C289.265 60.0185 290.188 61.6805 291.91 62.9425C293.632 64.2044 295.6 64.82 297.844 64.82C301.381 64.82 304.056 63.7119 305.87 61.4959L309.253 65.1893C306.209 68.3287 302.273 69.8984 297.414 69.8984C292.556 69.8984 290.096 68.575 287.328 65.9588C284.561 63.3426 283.177 59.803 283.177 55.3709C283.177 50.9388 284.591 47.43 287.42 44.8138C290.249 42.1976 293.57 40.9049 297.383 40.9049C301.196 40.9049 304.456 42.0745 307.131 44.3829C309.806 46.6913 311.159 49.8923 311.159 53.9243V57.9871ZM289.112 53.3395H305.224C305.224 50.9695 304.487 49.1536 303.011 47.8917C301.535 46.6297 299.72 45.9834 297.537 45.9834C295.354 45.9834 293.416 46.6605 291.694 47.984C289.972 49.3075 289.112 51.0927 289.112 53.3395Z" fill="#1D1D1B"/>
<path d="M45.1718 32.4716V38.1964H56.3955V63.3734L62.607 69.2213V38.1964H73.8308V32.4716H45.1718Z" fill="#1D1D1B"/>
</g>
<defs>
<clipPath id="clip0_16018_72452">
<rect width="311" height="100" fill="white"/>
</clipPath>
</defs>
</svg>
