<svg viewBox="261.047 172.626 175.8 175.8" width="125" height="125" xmlns="http://www.w3.org/2000/svg"><g transform="translate(135.54735005 47.82631082)"><circle class="st0" cx="213.4" cy="212.7" r="87.9" fill="#fff"/><path class="st1" d="M213.4 147.2c34 0 62 26 65.2 59.2h17c-3.3-42.5-38.8-76.1-82.2-76.1-43.3 0-78.9 33.6-82.2 76.1h17c3.3-33.1 31.3-59.2 65.2-59.2zm0 131c-34 0-62-26-65.2-59.2h-17c3.3 42.5 38.8 76.1 82.2 76.1 43.3 0 78.9-33.6 82.2-76.1h-17c-3.2 33.2-31.2 59.2-65.2 59.2z" fill="#348ab4" stroke="#348ab4" stroke-miterlimit="10" stroke-width="2"/><path class="st0" d="M144.8 172.8l4.7-7.1 2.4 1.5-1.6 2.4 7.2 4.7-1.5 2.3-7.2-4.7-1.6 2.4-2.4-1.5zm14.8-1.5l-8.6-7.5 3-3.5c.6-.7 1.1-1.1 1.5-1.3.4-.2.9-.3 1.5-.1s1.1.4 1.7.9c.5.4.8.9 1 1.3.2.5.3.9.3 1.4 0 .3-.1.6-.3 1 .3-.2.6-.2.8-.3.1 0 .4 0 .7.1.4.1.6.1.8.2l3.4 1.1-2.1 2.4-3.6-1.2c-.5-.2-.8-.2-1-.2-.3 0-.5.2-.6.3l-.2.2 3.5 3-1.8 2.2zm-3.3-6.6l.8-.9c.1-.1.2-.3.4-.7.1-.2.1-.4 0-.6-.1-.2-.2-.4-.4-.6-.3-.2-.6-.4-.8-.3-.3 0-.6.2-.9.6l-.8.9 1.7 1.6zm6.3-12.8l2.1-1.8 4.5 5.1c.4.5.8 1 1.1 1.6.3.6.4 1.1.4 1.7 0 .6 0 1.1-.2 1.4-.2.5-.6 1.1-1.2 1.6-.3.3-.7.6-1.2.9-.4.3-.9.4-1.3.5-.4.1-.9 0-1.4-.1s-.9-.3-1.3-.6c-.6-.4-1.1-.9-1.5-1.3l-4.5-5.1 2.1-1.8 4.6 5.3c.4.5.8.7 1.3.8s.8 0 1.2-.3c.4-.3.5-.7.5-1.1 0-.4-.2-.9-.7-1.4l-4.5-5.4zm8.3 3.1l2.1-1.6c.3.4.7.7 1 .9.5.2 1 .2 1.4-.1.3-.2.5-.5.6-.8.1-.3 0-.6-.2-.9-.2-.2-.4-.4-.7-.5-.3-.1-.8 0-1.6.2-1.2.4-2.2.5-2.9.3-.8-.2-1.4-.7-1.9-1.4-.3-.5-.5-1-.6-1.6-.1-.6.1-1.1.3-1.7.3-.5.8-1.1 1.6-1.6 1-.6 1.8-.9 2.7-.8.8.1 1.6.7 2.3 1.6l-2.1 1.6c-.3-.4-.7-.6-1-.7s-.6 0-1 .2c-.3.2-.4.4-.5.6 0 .2 0 .5.1.7.1.2.2.3.4.3.2.1.5 0 1-.2 1.2-.4 2.1-.6 2.7-.6.6 0 1.2.1 1.7.4s.9.7 1.2 1.2c.4.6.6 1.3.7 2 .1.7 0 1.3-.4 1.9-.3.6-.8 1.1-1.6 1.6-1.3.8-2.4 1.1-3.3.8-.5-.3-1.3-.9-2-1.8zm4.3-11.8l7.6-3.7 1.2 2.5-2.6 1.2 3.7 7.8-2.5 1.2-3.7-7.8-2.6 1.2-1.1-2.4zm17.3 3l-3 1 .2 1.9-2.7.9-.5-11.9 2.9-1 6.9 9.7-2.8.9-1-1.5zm-1.3-2.1l-2.3-3.6.4 4.2 1.9-.6zm1.9-8.1l8.3-1.7.6 2.8-2.8.6 1.7 8.4-2.7.6-1.7-8.4-2.8.6-.6-2.9zm11.6 9.4l-.8-11.4 4.6-.3c.9-.1 1.5 0 2 .1.5.2.9.5 1.2 1 .3.5.5 1.1.5 1.8 0 .6 0 1.2-.2 1.7s-.4.9-.8 1.2c-.2.2-.5.4-.9.5.3.1.6.2.8.4.1.1.3.3.5.6s.4.5.4.7l1.6 3.2-3.1.2-1.7-3.4c-.2-.4-.4-.7-.6-.8-.2-.2-.4-.2-.7-.2h-.2l.3 4.6-2.9.1zm2.3-7l1.2-.1c.1 0 .4-.1.7-.2.2-.1.3-.2.4-.4.1-.2.1-.4.1-.7 0-.4-.1-.6-.3-.8-.2-.2-.6-.3-1.1-.2l-1.2.1.2 2.3z" fill="#fff"/><path class="st0" d="M219.7 143.3l-3.2-.2-.6 1.9-2.8-.2 4.1-11.2 3 .2 2.6 11.6-2.9-.2-.2-1.9zm-.4-2.5l-.7-4.2-1.3 4 2 .2zm6.5-6.4l4.1.8c.8.2 1.4.4 1.9.8s.8.9 1 1.4c.2.6.3 1.2.3 1.9s-.1 1.4-.2 2.2c-.2 1.2-.5 2.1-.9 2.7-.4.6-.8 1.1-1.2 1.5-.5.4-.9.6-1.4.6-.6.1-1.2.1-1.7 0l-4.1-.8 2.2-11.1zm2.2 3.1l-1.3 6.1.7.1c.6.1 1 .1 1.3 0 .3-.1.5-.4.7-.7.2-.4.4-1 .6-1.9.2-1.2.3-2 0-2.5s-.7-.8-1.4-1l-.6-.1zm8.4-.7l7 2.5-.8 2.3-4.4-1.6-.6 1.7 4.1 1.4-.8 2.2-4.1-1.4-.8 2.1 4.5 1.6-.9 2.4-7.2-2.5 4-10.7zm4.5 13.8l5.2-10.2 4.1 2.1c.8.4 1.3.8 1.6 1.2.3.4.5.9.5 1.4s-.1 1.2-.5 1.8c-.3.6-.6 1-1 1.3-.4.3-.8.5-1.3.6-.3.1-.7 0-1.1 0 .2.3.4.5.5.7 0 .1.1.4.1.7v.8l-.3 3.6-2.8-1.4.3-3.8v-1c-.1-.2-.3-.4-.5-.5l-.2-.1-2.1 4.1-2.5-1.3zm5.6-4.8l1 .5c.1.1.4.1.7.2.2 0 .4 0 .6-.1.2-.1.3-.3.5-.5.2-.3.2-.6.1-.9-.1-.3-.3-.5-.8-.7l-1.1-.6-1 2.1zm4.3 6.5l2.2 1.5-1.7 2.7-2.2-1.5 1.7-2.7zm9.4 5l1.3 2.3c-.7.6-1.3 1-2 1.2-.6.2-1.3.3-1.8.2-.6-.1-1.2-.4-1.8-.9-.8-.6-1.3-1.3-1.5-1.9s-.3-1.5-.1-2.5c.2-1 .8-2 1.6-3.2 1.2-1.5 2.4-2.4 3.6-2.7 1.3-.3 2.4 0 3.6.9.9.7 1.4 1.5 1.6 2.4.1.9 0 1.9-.5 3l-2.4-1c.1-.3.2-.6.3-.8 0-.3 0-.6-.1-.8s-.2-.5-.5-.6c-.5-.4-1.1-.4-1.7-.1-.5.2-1.1.7-1.7 1.5-.8 1-1.2 1.8-1.3 2.3-.1.6.1 1 .6 1.3.4.3.9.4 1.3.3.4-.1.9-.5 1.5-.9zm3.6 1.6c1.4-1.3 2.7-2 4-2.1 1.3-.1 2.5.4 3.5 1.4 1 1.1 1.5 2.3 1.3 3.6-.2 1.3-.9 2.6-2.3 3.8-1 .9-1.9 1.5-2.8 1.9-.9.3-1.7.4-2.5.2s-1.6-.6-2.2-1.3c-.7-.7-1.1-1.5-1.3-2.3s-.1-1.6.3-2.5 1-1.8 2-2.7zm1.9 2.1c-.8.8-1.3 1.5-1.5 2.1s0 1.1.4 1.5c.4.4.9.6 1.5.5s1.3-.6 2.3-1.5c.8-.7 1.2-1.4 1.4-2 .1-.6 0-1.1-.4-1.5-.4-.4-.9-.6-1.5-.5-.7.1-1.4.6-2.2 1.4zm10.4 3l2.1 3-4.9 5.1 6.5-2.8 2.1 3-9.4 6.4-1.3-1.9 7.2-4.9-8.2 3.5-1.2-1.7 6.2-6.4-7.2 4.9-1.3-1.9 9.4-6.3zm-121.6 82.9l4.7 7-2.3 1.6-1.6-2.4-7.2 4.8-1.5-2.3 7.2-4.8-1.6-2.4 2.3-1.5zm-3.4 15.2l8.6-7.5 3.1 3.5c.6.6.9 1.2 1.1 1.7s.1 1-.1 1.5-.6 1.1-1.1 1.5c-.5.4-1 .7-1.4.8-.5.1-1 .2-1.4.1-.3-.1-.6-.2-1-.4.1.3.2.6.2.8 0 .1-.1.4-.2.7-.1.3-.2.6-.3.8l-1.6 3.2-2.1-2.4 1.6-3.4c.2-.4.3-.8.3-1 0-.3-.1-.5-.3-.7l-.2-.2-3.5 3.1-1.7-2.1zm6.9-2.4l.8.9c.1.1.3.2.6.5.2.1.3.1.6.1.2 0 .4-.1.6-.3.3-.2.4-.5.5-.8 0-.3-.1-.6-.5-1l-.8-.9-1.8 1.5zm12 5.4l2.1 1.8-4.5 5.1c-.4.5-.9.9-1.4 1.3-.5.3-1.1.6-1.6.7-.6.1-1.1.1-1.5 0-.6-.2-1.1-.5-1.7-1-.3-.3-.7-.6-1-1-.3-.4-.6-.8-.7-1.2-.1-.4-.1-.9-.1-1.4.1-.5.2-1 .4-1.4.3-.7.7-1.2 1.1-1.6l4.5-5.1 2.1 1.8-4.6 5.3c-.4.5-.6.9-.6 1.4 0 .4.1.8.5 1.1.4.3.8.4 1.2.3.4-.1.9-.4 1.3-.8l4.5-5.3zm-1.4 8.7l2.3 1.3c-.3.5-.4.9-.4 1.2 0 .5.2 1 .6 1.3.3.2.7.3 1 .2.3-.1.5-.2.7-.5.2-.2.2-.5.2-.8 0-.3-.3-.8-.8-1.3-.8-1-1.3-1.8-1.4-2.6-.1-.8.1-1.5.6-2.3.3-.5.7-.9 1.2-1.2.5-.3 1.1-.4 1.7-.4.6 0 1.3.3 2.1.8 1 .6 1.6 1.3 1.8 2.1.2.8 0 1.7-.5 2.8l-2.3-1.3c.2-.5.3-.9.2-1.2-.1-.3-.3-.6-.6-.8-.3-.2-.5-.2-.8-.2-.2.1-.4.2-.6.4-.1.2-.1.3-.1.5s.2.5.6.9c.8.9 1.4 1.7 1.6 2.3.3.6.3 1.1.3 1.7s-.3 1.1-.6 1.6c-.4.6-.9 1.1-1.5 1.4s-1.2.5-1.9.4c-.7 0-1.3-.3-2.1-.8-1.3-.8-2-1.7-2.1-2.7s.2-1.8.8-2.8zm11.2-1.8l7.6 3.7-1.2 2.5-2.6-1.2-3.8 7.7-2.5-1.2 3.8-7.7-2.6-1.2 1.3-2.6zm9.7 14.5l-3-1-1 1.6-2.7-.9 7-9.7 2.9 1-.5 11.9-2.8-1 .1-1.9zm.2-2.5l.4-4.2-2.3 3.6 1.9.6zm5-5.7l8.3 1.8-.6 2.8-2.8-.6-1.8 8.4-2.7-.6 1.8-8.4-2.8-.6.6-2.8zm8.1 13.2l1-11.4 4.6.4c.9.1 1.5.2 1.9.4.4.2.8.6 1 1.1.2.5.3 1.2.3 1.9-.1.6-.2 1.2-.5 1.6-.3.4-.6.8-1 1-.3.2-.6.3-1 .4.3.2.5.3.7.5.1.1.2.3.4.6s.3.6.3.7l1.1 3.4-3.1-.3-1.2-3.6c-.2-.5-.3-.8-.4-.9-.2-.2-.4-.3-.7-.3h-.2l-.4 4.6-2.8-.1zm3.3-6.5l1.2.1c.1 0 .4 0 .7-.1.2 0 .3-.1.5-.3.1-.2.2-.4.2-.6 0-.4 0-.7-.2-.9s-.5-.3-1-.4l-1.2-.1-.2 2.3zm12.8 5.1l-3.2.2-.3 1.9-2.8.1 2.8-11.6 3-.2 4 11.2-2.9.1-.6-1.7zm-.7-2.5l-1.2-4.1-.8 4.2 2-.1zm3.9-7.3l4.1-.8c.8-.1 1.5-.1 2 .1s1 .5 1.4 1c.4.5.8 1 1 1.7s.5 1.4.6 2.1c.2 1.2.3 2.2.2 2.9-.1.7-.3 1.3-.6 1.8s-.7.9-1.1 1.1c-.6.3-1.1.5-1.6.6l-4.1.8-1.9-11.3zm3.2 2l1.1 6.1.7-.1c.6-.1 1-.3 1.2-.5.2-.2.3-.5.4-.9s0-1.1-.2-2c-.2-1.2-.5-2-.9-2.4-.4-.4-.9-.5-1.6-.4l-.7.2zm5.8-3.8l7.1-2.3.8 2.3-4.4 1.5.6 1.7 4.1-1.3.7 2.2-4.1 1.3.7 2.1 4.6-1.5.8 2.5-7.2 2.4-3.7-10.9zm13.1 7.6l-4.9-10.3 4.2-2c.8-.4 1.4-.6 1.9-.6s1 .1 1.4.5.9.8 1.2 1.5c.3.6.4 1.1.4 1.6s-.1 1-.3 1.4c-.1.3-.4.5-.7.8.4 0 .6 0 .8.1.1 0 .4.2.7.3.3.2.5.3.7.5l2.7 2.4-2.8 1.4-2.9-2.5c-.4-.3-.6-.5-.8-.6-.3-.1-.5-.1-.7.1l-.2.1 2 4.2-2.7 1.1zm-.4-7.4l1.1-.5c.1-.1.3-.2.6-.5.1-.1.2-.3.3-.5 0-.2 0-.4-.1-.7-.2-.3-.4-.5-.6-.6-.3-.1-.6 0-1.1.2l-1.1.5.9 2.1zm8 0l2.3-1.4 1.6 2.7-2.3 1.4-1.6-2.7zm7.9-7.3l2.5-.7c.4.8.6 1.5.7 2.2.1.7 0 1.3-.3 1.8-.2.6-.7 1.1-1.3 1.6-.8.6-1.5.9-2.2 1-.7.1-1.5-.1-2.4-.6-.9-.5-1.8-1.3-2.6-2.4-1.1-1.5-1.7-2.9-1.7-4.2 0-1.3.6-2.4 1.8-3.2.9-.7 1.8-1 2.7-.9.9.1 1.8.5 2.8 1.3l-1.6 2c-.3-.2-.5-.4-.7-.5-.3-.1-.6-.2-.8-.2-.3 0-.5.1-.7.3-.5.4-.7.9-.6 1.6.1.5.4 1.2 1 2 .8 1 1.4 1.6 1.9 1.8.5.2 1 .1 1.4-.2.4-.3.6-.7.6-1.2.1-.3-.1-.8-.5-1.5zm2.3-3c-1.3-1.3-2-2.6-2.2-4s.3-2.5 1.3-3.5c1.1-1.1 2.2-1.5 3.5-1.4 1.3.2 2.6.9 3.9 2.2.9.9 1.6 1.9 1.9 2.7.4.9.5 1.7.3 2.5-.1.8-.6 1.6-1.3 2.3-.7.7-1.5 1.2-2.2 1.3-.8.2-1.6.1-2.5-.2-.8-.3-1.7-1-2.7-1.9zm2-2c.8.8 1.5 1.3 2.1 1.4.6.1 1.1 0 1.5-.4.4-.4.6-.9.5-1.5-.1-.6-.6-1.3-1.5-2.2-.8-.8-1.4-1.2-2-1.3-.6-.1-1.1 0-1.5.5-.4.4-.5.9-.4 1.5 0 .5.5 1.2 1.3 2zm1.2-9.3l2.2-2.9 6.4 3-4.8-5.3 2.2-2.9 9.2 6.8-1.4 1.8-7-5.2 6 6.6-1.2 1.7-8.1-3.8 7 5.2-1.4 1.8-9.1-6.8z" fill="#fff"/><circle class="st2" cx="213.4" cy="212.7" r="59.5" fill="none" stroke="#bcbec0" stroke-miterlimit="10" stroke-width="2.8347"/><path class="st3" fill="none" stroke="#bcbec0" stroke-miterlimit="10" stroke-width="2.8989" d="M129.8 212.7h24.1"/><path class="st4" fill="none" stroke="#bcbec0" stroke-miterlimit="10" stroke-width="2.897" d="M297 212.7h-24"/><circle class="st5" cx="213.4" cy="212.7" r="43.8" fill="none" stroke="#f78d1e" stroke-miterlimit="10" stroke-width="17.0079"/><path class="st0" d="M168.7 192.2l4.1-7.3 2.4 1.4-1.4 2.4 7.4 4.2-1.4 2.4-7.4-4.2-1.4 2.4-2.3-1.3zm14.4-2.3l-8.3-7.7 3.1-3.4c.6-.6 1.1-1 1.5-1.2s.9-.2 1.5-.1 1.1.5 1.6.9.8.9 1 1.3c.2.5.3.9.2 1.4 0 .3-.1.6-.3 1 .3-.1.6-.2.8-.2.1 0 .4 0 .7.1.4.1.6.1.8.2l3.3 1.2-2.1 2.3-3.5-1.3c-.5-.2-.8-.2-1-.2-.3 0-.5.1-.6.3l-.2.2 3.4 3.1-1.9 2.1zm-3.1-6.5l.8-.9c.1-.1.2-.3.4-.6.1-.2.1-.4 0-.6-.1-.2-.2-.4-.4-.6-.3-.2-.5-.4-.8-.4-.3 0-.6.2-.9.6l-.8.9 1.7 1.6zm7.7-12.5l2.3-1.5 3.7 5.6c.4.6.6 1.1.8 1.7.2.6.3 1.2.2 1.7s-.2 1-.4 1.4c-.3.5-.8 1-1.4 1.4-.4.2-.8.5-1.2.7-.5.2-.9.3-1.3.3s-.9-.1-1.3-.3c-.5-.2-.9-.4-1.2-.8-.5-.5-1-1-1.3-1.5l-3.7-5.6 2.3-1.5 3.8 5.7c.3.5.7.8 1.1 1s.8.1 1.2-.2c.4-.3.6-.6.6-1s-.1-.9-.5-1.4l-3.7-5.7zm7.9 4.1l2.4-1.1c.2.5.5.8.7 1 .4.3.9.4 1.4.2.4-.1.6-.3.7-.6.1-.3.1-.6 0-.9-.1-.3-.3-.5-.6-.6s-.8-.2-1.5-.1c-1.3.1-2.2-.1-2.9-.4-.7-.4-1.2-1-1.5-1.8-.2-.5-.3-1.1-.2-1.7.1-.6.3-1.1.7-1.5.4-.5 1-.8 1.9-1.2 1.1-.4 2-.4 2.7-.1.7.3 1.4 1 1.9 2l-2.4 1.1c-.2-.5-.5-.8-.8-.9-.3-.1-.6-.1-1 0-.3.1-.5.3-.6.5-.1.2-.1.4 0 .7.1.2.2.3.4.4.2.1.5.1 1 .1 1.2-.1 2.2-.1 2.8.1.6.1 1.1.4 1.5.8.4.4.7.9.9 1.5.2.7.3 1.4.2 2-.1.7-.4 1.3-.8 1.8s-1 .9-1.9 1.2c-1.4.5-2.5.5-3.3 0-.6-.7-1.2-1.4-1.7-2.5zm7.7-10.5l8.3-1 .3 2.8-2.8.3 1 8.4-2.7.3-1-8.4-2.8.3-.3-2.7zm11.4-.9l7.3.7-.2 2.4-4.6-.4-.2 1.7 4.3.4-.2 2.3-4.3-.4-.2 2.2 4.7.5-.2 2.5-7.5-.7 1.1-11.2zm10.9 1.4l3.9 1.3c.8.3 1.3.6 1.7 1 .4.4.6.9.8 1.5s.2 1.2.1 1.9-.2 1.4-.5 2.1c-.4 1.1-.8 2-1.2 2.6s-.9 1-1.4 1.3-1 .5-1.5.4c-.6 0-1.2-.1-1.7-.2l-3.9-1.3 3.7-10.6zm1.8 3.3l-2 5.8.6.2c.5.2 1 .2 1.2.2s.6-.3.8-.6c.3-.3.5-.9.8-1.8.4-1.1.5-2 .4-2.5s-.6-.9-1.2-1.1l-.6-.2zm-13.3 83.1l8.4-1.1.4 2.8-2.8.4 1.1 8.5-2.8.4-1.1-8.5-2.8.4-.4-2.9zm12.7 9.5l-3.9-10.7 4.4-1.6c.8-.3 1.5-.4 1.9-.4s1 .2 1.4.6c.4.4.8.9 1 1.6.2.6.3 1.1.3 1.6s-.2 1-.4 1.3c-.2.3-.4.5-.8.8.4 0 .6.1.8.1.1.1.3.2.6.4s.5.4.6.5l2.4 2.6-3 1.1-2.6-2.8c-.3-.4-.6-.6-.8-.7-.2-.1-.5-.1-.7 0l-.2.1 1.6 4.3-2.6 1.2zm.3-7.3l1.1-.4c.1 0 .3-.2.6-.4.2-.1.3-.3.3-.5s0-.4-.1-.7c-.1-.3-.3-.6-.5-.7s-.6-.1-1.1.1l-1.1.4.8 2.2zm13.9-1.5l-2.6 1.7.7 1.8-2.4 1.6-3.4-11.4 2.5-1.7 9.1 7.7-2.4 1.6-1.5-1.3zm-1.9-1.8l-3.1-2.9 1.4 4 1.7-1.1zm-.6-8.1l2.9-3c.6-.6 1.1-1 1.7-1.1.5-.2 1.1-.2 1.7-.1.6.1 1.2.4 1.8.8.6.4 1.2.8 1.7 1.4.9.8 1.5 1.6 1.8 2.2.3.6.5 1.2.6 1.8.1.6 0 1.1-.2 1.5-.3.6-.6 1.1-.9 1.4l-2.9 3-8.2-7.9zm3.8-.2l4.5 4.3.5-.5c.4-.4.6-.8.7-1.1s0-.6-.2-1-.6-.9-1.3-1.5c-.9-.8-1.6-1.3-2.1-1.4s-1.1.1-1.6.7l-.5.5zm2.2-6.3l3.9-6.4 2.1 1.3-2.4 4 1.5.9 2.2-3.7 2 1.2-2.2 3.7 1.9 1.2 2.5-4.1 2.2 1.3-3.9 6.5-9.8-5.9zm15-3.4l-10.8-3.6 1.5-4.4c.3-.8.6-1.4.9-1.8.3-.4.8-.6 1.3-.7.6-.1 1.2 0 1.9.2.6.2 1.1.5 1.4.8.4.3.6.7.8 1.2.1.3.1.6.1 1.1.2-.3.4-.5.6-.6.1-.1.4-.1.7-.2s.6-.1.8-.1l3.6-.2-1 3-3.8.3c-.5 0-.8.1-1 .2-.2.1-.4.3-.5.6l-.1.2 4.4 1.5-.8 2.5zm-5.6-4.8l.4-1.1c0-.1.1-.4.1-.7 0-.2-.1-.4-.2-.5-.1-.2-.3-.3-.6-.4-.3-.1-.6-.1-.9 0-.2.1-.4.4-.6.9l-.4 1.2 2.2.6zm5-6l.1-2.7c.5 0 1-.1 1.3-.2.5-.2.8-.6.8-1.2 0-.4 0-.7-.3-.9s-.5-.4-.8-.4c-.3 0-.6 0-.8.2s-.5.6-.8 1.3c-.5 1.2-1 2-1.6 2.5-.6.5-1.4.6-2.3.6-.6-.1-1.1-.2-1.6-.6-.5-.3-.9-.8-1.1-1.3-.2-.6-.3-1.3-.2-2.2.1-1.1.5-2 1.1-2.5s1.5-.8 2.7-.8l-.1 2.6c-.5 0-.9.1-1.2.3-.3.2-.4.5-.4.9 0 .3 0 .6.2.8.2.2.4.3.6.3.2 0 .3 0 .5-.2.2-.1.3-.4.5-.9.5-1.2.9-2 1.3-2.5s.8-.8 1.4-1c.5-.2 1.1-.2 1.7-.2.7.1 1.4.3 2 .7s1 .9 1.3 1.5c.3.6.3 1.3.3 2.2-.2 1.5-.6 2.5-1.4 3-1.1.5-2.1.7-3.2.7z" fill="#fff"/><path class="st6" d="M162.1 220.9s-1.2-.3 0-1.5 7-10.1 13.2-12.3c6.2-2.2 7.9 2.4 9.5 5.1 1.6 2.7 4.6 9.7 5.4 11.6.8 1.9 1.7 0 2.5-1.1s17.1-27.1 63.2-51.7c0 0 .4-.1.6-.2 1.4-.4 4.8.5 1 3.5-4.5 3.5-23.6 15.5-55.3 69.6 0 0-.8 1.4-2.1 2.9-1.3 1.4-10.1 7.5-11.1 7.9-1 .5-1-1.5-2.5-5-4.3-10.2-10.7-29.6-24.4-28.8z" fill="#348ab4" stroke="#fff" stroke-miterlimit="10" stroke-width="2"/></g></svg>